solid WalletBackV3
facet normal 0.0 0.0 -1.0
  outer loop
    vertex 105.50000000000001 62.0 0.0
    vertex 0.0 0.0 0.0
    vertex 0.0 62.0 0.0
  endloop
endfacet
facet normal 0.0 0.0 -1.0
  outer loop
    vertex 0.0 0.0 0.0
    vertex 105.50000000000001 62.0 0.0
    vertex 105.50000000000001 0.0 0.0
  endloop
endfacet
facet normal 0.0 0.0 -1.0
  outer loop
    vertex 2.000000000000001 60.0 1.9999999999999998
    vertex 12.0 41.0 1.9999999999999998
    vertex 2.000000000000001 2.000000000000001 1.9999999999999998
  endloop
endfacet
facet normal 0.0 0.0 -1.0
  outer loop
    vertex 12.0 41.0 1.9999999999999998
    vertex 2.000000000000001 60.0 1.9999999999999998
    vertex 103.50000000000001 60.0 1.9999999999999998
  endloop
endfacet
facet normal 0.0 0.0 -1.0
  outer loop
    vertex 12.0 41.0 1.9999999999999998
    vertex 103.50000000000001 60.0 1.9999999999999998
    vertex 19.0 41.0 1.9999999999999998
  endloop
endfacet
facet normal 0.0 0.0 -1.0
  outer loop
    vertex 19.0 41.0 1.9999999999999998
    vertex 103.50000000000001 60.0 1.9999999999999998
    vertex 19.0 21.0 1.9999999999999998
  endloop
endfacet
facet normal 0.0 0.0 -1.0
  outer loop
    vertex 2.000000000000001 2.000000000000001 1.9999999999999998
    vertex 12.0 21.0 1.9999999999999998
    vertex 103.50000000000001 2.000000000000001 1.9999999999999998
  endloop
endfacet
facet normal 0.0 0.0 -1.0
  outer loop
    vertex 12.0 21.0 1.9999999999999998
    vertex 2.000000000000001 2.000000000000001 1.9999999999999998
    vertex 12.0 41.0 1.9999999999999998
  endloop
endfacet
facet normal 0.0 0.0 -1.0
  outer loop
    vertex 103.50000000000001 2.000000000000001 1.9999999999999998
    vertex 12.0 21.0 1.9999999999999998
    vertex 19.0 21.0 1.9999999999999998
  endloop
endfacet
facet normal 0.0 0.0 -1.0
  outer loop
    vertex 103.50000000000001 2.000000000000001 1.9999999999999998
    vertex 19.0 21.0 1.9999999999999998
    vertex 103.50000000000001 60.0 1.9999999999999998
  endloop
endfacet
facet normal -0.0 -0.7071067811865474 0.7071067811865477
  outer loop
    vertex 105.50000000000001 0.0 0.0
    vertex 2.000000000000001 2.000000000000001 1.9999999999999998
    vertex 0.0 0.0 0.0
  endloop
endfacet
facet normal -0.0 -0.7071067811865474 0.7071067811865477
  outer loop
    vertex 2.000000000000001 2.000000000000001 1.9999999999999998
    vertex 105.50000000000001 0.0 0.0
    vertex 103.50000000000001 2.000000000000001 1.9999999999999998
  endloop
endfacet
facet normal 0.7071067811865482 1.597382619136849e-33 0.7071067811865468
  outer loop
    vertex 105.50000000000001 62.0 0.0
    vertex 103.50000000000001 2.000000000000001 1.9999999999999998
    vertex 105.50000000000001 0.0 0.0
  endloop
endfacet
facet normal 0.7071067811865482 1.597382619136849e-33 0.7071067811865468
  outer loop
    vertex 103.50000000000001 2.000000000000001 1.9999999999999998
    vertex 105.50000000000001 62.0 0.0
    vertex 103.50000000000001 60.0 1.9999999999999998
  endloop
endfacet
facet normal -0.7071067811865474 -4.91502344349799e-34 0.7071067811865477
  outer loop
    vertex 2.000000000000001 2.000000000000001 1.9999999999999998
    vertex 0.0 62.0 0.0
    vertex 0.0 0.0 0.0
  endloop
endfacet
facet normal -0.7071067811865474 -4.91502344349799e-34 0.7071067811865477
  outer loop
    vertex 0.0 62.0 0.0
    vertex 2.000000000000001 2.000000000000001 1.9999999999999998
    vertex 2.000000000000001 60.0 1.9999999999999998
  endloop
endfacet
facet normal -0.0 0.7071067811865481 0.7071067811865469
  outer loop
    vertex 2.000000000000001 60.0 1.9999999999999998
    vertex 105.50000000000001 62.0 0.0
    vertex 0.0 62.0 0.0
  endloop
endfacet
facet normal -0.0 0.7071067811865481 0.7071067811865469
  outer loop
    vertex 105.50000000000001 62.0 0.0
    vertex 2.000000000000001 60.0 1.9999999999999998
    vertex 103.50000000000001 60.0 1.9999999999999998
  endloop
endfacet
facet normal 0.0 0.0 -1.0
  outer loop
    vertex 19.0 41.0 1.9999999999999998
    vertex 12.0 21.0 1.9999999999999998
    vertex 12.0 41.0 1.9999999999999998
  endloop
endfacet
facet normal 0.0 0.0 -1.0
  outer loop
    vertex 12.0 21.0 1.9999999999999998
    vertex 19.0 41.0 1.9999999999999998
    vertex 19.0 21.0 1.9999999999999998
  endloop
endfacet
facet normal 0.11118200606865696 3.510492937580202e-17 0.9938000611423554
  outer loop
    vertex 36.53005895831339 21.0 8.440604036050575
    vertex 35.39601100745452 41.0 8.567476362874148
    vertex 35.39601100745452 21.0 8.567476362874148
  endloop
endfacet
facet normal 0.11118200606865696 3.510492937580202e-17 0.9938000611423554
  outer loop
    vertex 35.39601100745452 41.0 8.567476362874148
    vertex 36.53005895831339 21.0 8.440604036050575
    vertex 36.53005895831339 41.0 8.440604036050575
  endloop
endfacet
facet normal 0.021884127311361155 -0.0 0.9997605138090923
  outer loop
    vertex 35.39601100745452 21.0 8.567476362874148
    vertex 34.02704873738788 41.0 8.59744208385311
    vertex 34.02704873738788 21.0 8.59744208385311
  endloop
endfacet
facet normal 0.021884127311361155 -0.0 0.9997605138090923
  outer loop
    vertex 34.02704873738788 41.0 8.59744208385311
    vertex 35.39601100745452 21.0 8.567476362874148
    vertex 35.39601100745452 41.0 8.567476362874148
  endloop
endfacet
facet normal -0.1995893571889305 3.427049994860874e-17 -0.9798796295958548
  outer loop
    vertex 38.99999999999999 41.0 8.0
    vertex 37.770059201551945 21.0 8.250523723453599
    vertex 37.770059201551945 41.0 8.2505237234536
  endloop
endfacet
facet normal -0.1995893571889305 3.427049994860874e-17 -0.9798796295958548
  outer loop
    vertex 37.770059201551945 21.0 8.250523723453599
    vertex 38.99999999999999 41.0 8.0
    vertex 38.99999999999999 21.0 8.0
  endloop
endfacet
facet normal -0.1995893571889305 3.427049994860874e-17 -0.9798796295958548
  outer loop
    vertex 38.99999999999999 21.0 8.0
    vertex 38.99999999999999 41.0 8.0
    vertex 38.99999999999999 31.0 8.000000000000002
  endloop
endfacet
facet normal 0.0675890353868465 -3.5068687402780595e-17 -0.9977132465270149
  outer loop
    vertex 32.88708681860763 41.0 8.561145437907207
    vertex 31.74857344251855 21.0 8.484018045710357
    vertex 31.74857344251855 41.0 8.484018045710357
  endloop
endfacet
facet normal 0.0675890353868465 -3.5068687402780595e-17 -0.9977132465270149
  outer loop
    vertex 31.74857344251855 21.0 8.484018045710357
    vertex 32.88708681860763 41.0 8.561145437907207
    vertex 32.88708681860763 21.0 8.561145437907209
  endloop
endfacet
facet normal 0.15652083436893346 3.4888556000122656e-17 -0.9876746571662417
  outer loop
    vertex 31.74857344251855 41.0 8.484018045710357
    vertex 30.396160217465166 21.0 8.269695601714199
    vertex 30.396160217465166 41.0 8.2696956017142
  endloop
endfacet
facet normal 0.15652083436893346 3.4888556000122656e-17 -0.9876746571662417
  outer loop
    vertex 30.396160217465166 21.0 8.269695601714199
    vertex 31.74857344251855 41.0 8.484018045710357
    vertex 31.74857344251855 21.0 8.484018045710357
  endloop
endfacet
facet normal -0.24419895810533157 -0.0 0.9697251511950542
  outer loop
    vertex 29.059683242706516 21.0 7.975250312332381
    vertex 28.1743119266055 41.0 7.752293577981654
    vertex 28.1743119266055 21.0 7.752293577981654
  endloop
endfacet
facet normal -0.24419895810533157 -0.0 0.9697251511950542
  outer loop
    vertex 28.1743119266055 41.0 7.752293577981654
    vertex 29.059683242706516 21.0 7.975250312332381
    vertex 29.059683242706516 41.0 7.975250312332381
  endloop
endfacet
facet normal -0.3299211365515411 -9.970812681906701e-17 0.9440084976611913
  outer loop
    vertex 28.1743119266055 21.0 7.752293577981654
    vertex 27.312420240126272 41.0 7.451071411558312
    vertex 27.312420240126272 21.0 7.451071411558307
  endloop
endfacet
facet normal -0.3299211365515411 -9.970812681906701e-17 0.9440084976611913
  outer loop
    vertex 27.312420240126272 41.0 7.451071411558312
    vertex 28.1743119266055 21.0 7.752293577981654
    vertex 28.1743119266055 41.0 7.752293577981654
  endloop
endfacet
facet normal 0.4927724089120902 -4.513107193894222e-17 -0.8701582344694418
  outer loop
    vertex 24.787511320992575 41.0 6.395699409252568
    vertex 23.794553882864893 21.0 5.833385557184393
    vertex 23.794553882864893 41.0 5.833385557184393
  endloop
endfacet
facet normal 0.4927724089120902 -4.513107193894222e-17 -0.8701582344694418
  outer loop
    vertex 23.794553882864893 21.0 5.833385557184393
    vertex 24.787511320992575 41.0 6.395699409252568
    vertex 24.688094234894 21.0 6.339399307658192
  endloop
endfacet
facet normal 0.49277240891209056 0.0 -0.8701582344694414
  outer loop
    vertex 23.794553882864893 41.0 5.833385557184393
    vertex 23.19858039490714 21.0 5.495884537628165
    vertex 23.19858039490714 41.0 5.495884537628165
  endloop
endfacet
facet normal 0.49277240891209056 0.0 -0.8701582344694414
  outer loop
    vertex 23.19858039490714 21.0 5.495884537628165
    vertex 23.794553882864893 41.0 5.833385557184393
    vertex 23.794553882864893 21.0 5.833385557184393
  endloop
endfacet
facet normal 0.5685971230631144 0.0 -0.8226161386967494
  outer loop
    vertex 23.19858039490714 41.0 5.495884537628165
    vertex 22.072180180986724 21.0 4.717310071453088
    vertex 22.072180180986724 41.0 4.717310071453088
  endloop
endfacet
facet normal 0.5685971230631144 0.0 -0.8226161386967494
  outer loop
    vertex 22.072180180986724 21.0 4.717310071453088
    vertex 23.19858039490714 41.0 5.495884537628165
    vertex 23.19858039490714 21.0 5.495884537628165
  endloop
endfacet
facet normal 0.639867580007239 1.6115257168466978e-17 -0.7684851853195868
  outer loop
    vertex 21.170125167465386 41.0 4.019364962324068
    vertex 20.468752199855768 21.0 3.435377356524968
    vertex 20.293189168210862 41.0 3.289197450466475
  endloop
endfacet
facet normal 0.639867580007239 1.6115257168466978e-17 -0.7684851853195868
  outer loop
    vertex 20.468752199855768 21.0 3.435377356524968
    vertex 21.170125167465386 41.0 4.019364962324068
    vertex 21.17012516746539 21.0 4.019364962324066
  endloop
endfacet
facet normal 0.5685971230631166 0.0 -0.8226161386967478
  outer loop
    vertex 22.072180180986724 41.0 4.717310071453088
    vertex 21.696462537148534 21.0 4.45761182178235
    vertex 21.696462537148534 41.0 4.45761182178235
  endloop
endfacet
facet normal 0.5685971230631166 0.0 -0.8226161386967478
  outer loop
    vertex 21.696462537148534 21.0 4.45761182178235
    vertex 22.072180180986724 41.0 4.717310071453088
    vertex 22.072180180986724 21.0 4.717310071453088
  endloop
endfacet
facet normal 0.6398675800072324 7.217239805133854e-17 -0.7684851853195922
  outer loop
    vertex 21.696462537148534 41.0 4.45761182178235
    vertex 21.17012516746539 21.0 4.019364962324066
    vertex 21.170125167465386 41.0 4.019364962324068
  endloop
endfacet
facet normal 0.6398675800072324 7.217239805133854e-17 -0.7684851853195922
  outer loop
    vertex 21.17012516746539 21.0 4.019364962324066
    vertex 21.696462537148534 41.0 4.45761182178235
    vertex 21.696462537148534 21.0 4.45761182178235
  endloop
endfacet
facet normal 0.7060129291737997 2.057666014669367e-16 -0.7081989436870344
  outer loop
    vertex 19.646594584105426 41.0 2.6445987252332435
    vertex 19.0 21.0 1.9999999999999998
    vertex 19.0 41.0 1.9999999999999998
  endloop
endfacet
facet normal 0.7060129291737997 2.057666014669367e-16 -0.7081989436870344
  outer loop
    vertex 19.0 21.0 1.9999999999999998
    vertex 19.646594584105426 41.0 2.6445987252332435
    vertex 19.646594584105433 21.0 2.6445987252332372
  endloop
endfacet
facet normal 0.7060129291737939 3.1543617307369515e-16 -0.7081989436870403
  outer loop
    vertex 19.969729870521498 41.0 2.966736582279861
    vertex 19.646594584105433 21.0 2.6445987252332372
    vertex 19.646594584105426 41.0 2.6445987252332435
  endloop
endfacet
facet normal 0.7060129291737939 3.1543617307369515e-16 -0.7081989436870403
  outer loop
    vertex 19.646594584105433 21.0 2.6445987252332372
    vertex 19.969729870521498 41.0 2.966736582279861
    vertex 19.969891876158147 21.0 2.9668980878498563
  endloop
endfacet
facet normal 0.706012929173798 1.5228066844572677e-16 -0.7081989436870361
  outer loop
    vertex 20.131398731730673 41.0 3.1279064163722996
    vertex 19.969891876158147 21.0 2.9668980878498563
    vertex 19.969729870521498 41.0 2.966736582279861
  endloop
endfacet
facet normal 0.706012929173798 1.5228066844572677e-16 -0.7081989436870361
  outer loop
    vertex 19.969891876158147 21.0 2.9668980878498563
    vertex 20.131398731730673 41.0 3.1279064163722996
    vertex 20.293189168210862 21.0 3.289197450466475
  endloop
endfacet
facet normal 0.6722623353881593 -2.0867667358957005e-05 -0.7403130094649144
  outer loop
    vertex 20.293189168210862 41.0 3.289197450466475
    vertex 20.293189168210862 21.0 3.289197450466475
    vertex 20.131398731730673 41.0 3.1279064163722996
  endloop
endfacet
facet normal 0.6722623353881593 -2.0867667358957005e-05 -0.7403130094649144
  outer loop
    vertex 20.293189168210862 21.0 3.289197450466475
    vertex 20.293189168210862 41.0 3.289197450466475
    vertex 20.468752199855768 21.0 3.435377356524968
  endloop
endfacet
facet normal 0.413000766077069 1.5864533443915355e-16 -0.9107306776538027
  outer loop
    vertex 25.203473965393577 41.0 6.584331345139074
    vertex 25.61901993731981 21.0 6.772774327193764
    vertex 25.203265629156196 21.0 6.584236868223166
  endloop
endfacet
facet normal 0.413000766077069 1.5864533443915355e-16 -0.9107306776538027
  outer loop
    vertex 25.61901993731981 21.0 6.772774327193764
    vertex 25.203473965393577 41.0 6.584331345139074
    vertex 25.61901993731981 41.0 6.772774327193764
  endloop
endfacet
facet normal 0.41300076607709685 4.638651730301777e-17 -0.9107306776537898
  outer loop
    vertex 24.99557081496243 41.0 6.490050826754525
    vertex 25.203265629156196 21.0 6.584236868223166
    vertex 24.995388475074385 21.0 6.489968138737868
  endloop
endfacet
facet normal 0.41300076607709685 4.638651730301777e-17 -0.9107306776537898
  outer loop
    vertex 25.203265629156196 21.0 6.584236868223166
    vertex 24.99557081496243 41.0 6.490050826754525
    vertex 25.203473965393577 41.0 6.584331345139074
  endloop
endfacet
facet normal 0.41300076607704295 -1.3101774339948412e-16 -0.9107306776538143
  outer loop
    vertex 24.891563879028908 41.0 6.442885462424724
    vertex 24.995388475074385 21.0 6.489968138737868
    vertex 24.839452484088003 21.0 6.419253837225296
  endloop
endfacet
facet normal 0.41300076607704295 -1.3101774339948412e-16 -0.9107306776538143
  outer loop
    vertex 24.995388475074385 21.0 6.489968138737868
    vertex 24.891563879028908 41.0 6.442885462424724
    vertex 24.99557081496243 41.0 6.490050826754525
  endloop
endfacet
facet normal 0.41300076607713004 -3.129374580205888e-16 -0.9107306776537749
  outer loop
    vertex 24.891563879028908 41.0 6.442885462424724
    vertex 24.839452484088003 21.0 6.419253837225296
    vertex 24.787511320992575 21.0 6.395699409252568
  endloop
endfacet
facet normal 0.4524308710077174 5.818868060693854e-06 -0.8917994768586374
  outer loop
    vertex 24.787511320992575 41.0 6.395699409252568
    vertex 24.787511320992575 21.0 6.395699409252568
    vertex 24.688094234894 21.0 6.339399307658192
  endloop
endfacet
facet normal 0.4524308710077174 5.818868060693854e-06 -0.8917994768586374
  outer loop
    vertex 24.787511320992575 21.0 6.395699409252568
    vertex 24.787511320992575 41.0 6.395699409252568
    vertex 24.83954371186852 41.0 6.419295207461489
  endloop
endfacet
facet normal 0.4524308710077174 5.818868060693854e-06 -0.8917994768586374
  outer loop
    vertex 24.787511320992575 21.0 6.395699409252568
    vertex 24.83954371186852 41.0 6.419295207461489
    vertex 24.891563879028908 41.0 6.442885462424724
  endloop
endfacet
facet normal 0.4524308710077173 5.818868060694842e-06 -0.8917994768586374
  outer loop
    vertex 24.787511320992575 41.0 6.395699409252568
    vertex 24.787511320992575 21.0 6.395699409252568
    vertex 24.688094234894 21.0 6.339399307658192
  endloop
endfacet
facet normal 0.4524308710077173 5.818868060694842e-06 -0.8917994768586374
  outer loop
    vertex 24.787511320992575 21.0 6.395699409252568
    vertex 24.787511320992575 41.0 6.395699409252568
    vertex 24.83954371186852 41.0 6.419295207461489
  endloop
endfacet
facet normal 0.4524308710077173 5.818868060694842e-06 -0.8917994768586374
  outer loop
    vertex 24.787511320992575 21.0 6.395699409252568
    vertex 24.83954371186852 41.0 6.419295207461489
    vertex 24.891563879028908 41.0 6.442885462424724
  endloop
endfacet
facet normal 0.41300076607713004 -3.129374580205888e-16 -0.9107306776537749
  outer loop
    vertex 24.891563879028908 41.0 6.442885462424724
    vertex 24.839452484088003 21.0 6.419253837225296
    vertex 24.787511320992575 21.0 6.395699409252568
  endloop
endfacet
facet normal -0.3299211365515439 -1.664003176053302e-16 0.9440084976611903
  outer loop
    vertex 27.312420240126272 21.0 7.451071411558307
    vertex 26.881474396886656 41.0 7.300460328346635
    vertex 26.881474396886656 21.0 7.300460328346633
  endloop
endfacet
facet normal -0.3299211365515439 -1.664003176053302e-16 0.9440084976611903
  outer loop
    vertex 26.881474396886656 41.0 7.300460328346635
    vertex 27.312420240126272 21.0 7.451071411558307
    vertex 27.312420240126272 41.0 7.451071411558312
  endloop
endfacet
facet normal 0.4130007660770752 0.0 -0.9107306776537997
  outer loop
    vertex 26.034774245483426 41.0 6.961311786164362
    vertex 25.61901993731981 21.0 6.772774327193764
    vertex 25.61901993731981 41.0 6.772774327193764
  endloop
endfacet
facet normal 0.4130007660770752 0.0 -0.9107306776537997
  outer loop
    vertex 25.61901993731981 21.0 6.772774327193764
    vertex 26.034774245483426 41.0 6.961311786164362
    vertex 26.034774245483426 21.0 6.961311786164362
  endloop
endfacet
facet normal -0.3299211365515464 -6.669219078626323e-17 0.9440084976611895
  outer loop
    vertex 26.881474396886656 21.0 7.300460328346633
    vertex 26.450528553647043 41.0 7.14984924513496
    vertex 26.450528553647043 21.0 7.14984924513496
  endloop
endfacet
facet normal -0.3299211365515464 -6.669219078626323e-17 0.9440084976611895
  outer loop
    vertex 26.450528553647043 41.0 7.14984924513496
    vertex 26.881474396886656 21.0 7.300460328346633
    vertex 26.881474396886656 41.0 7.300460328346635
  endloop
endfacet
facet normal 0.4130007660770752 0.0 -0.9107306776537997
  outer loop
    vertex 26.450528553647043 41.0 7.14984924513496
    vertex 26.034774245483426 21.0 6.961311786164362
    vertex 26.034774245483426 41.0 6.961311786164362
  endloop
endfacet
facet normal 0.4130007660770752 0.0 -0.9107306776537997
  outer loop
    vertex 26.034774245483426 21.0 6.961311786164362
    vertex 26.450528553647043 41.0 7.14984924513496
    vertex 26.450528553647043 21.0 7.14984924513496
  endloop
endfacet
facet normal 0.1565208343689414 3.471584037635962e-17 -0.9876746571662405
  outer loop
    vertex 30.396160217465166 41.0 8.2696956017142
    vertex 29.945054558807534 21.0 8.198207046683107
    vertex 29.945054558807534 41.0 8.198207046683107
  endloop
endfacet
facet normal 0.1565208343689414 3.471584037635962e-17 -0.9876746571662405
  outer loop
    vertex 29.945054558807534 21.0 8.198207046683107
    vertex 30.396160217465166 41.0 8.2696956017142
    vertex 30.396160217465166 21.0 8.269695601714199
  endloop
endfacet
facet normal -0.24419895810533013 -0.0 0.9697251511950545
  outer loop
    vertex 29.945054558807534 21.0 8.198207046683107
    vertex 29.059683242706516 41.0 7.975250312332381
    vertex 29.059683242706516 21.0 7.975250312332381
  endloop
endfacet
facet normal -0.24419895810533013 -0.0 0.9697251511950545
  outer loop
    vertex 29.059683242706516 41.0 7.975250312332381
    vertex 29.945054558807534 21.0 8.198207046683107
    vertex 29.945054558807534 41.0 8.198207046683107
  endloop
endfacet
facet normal 0.021884127311360982 -0.0 0.9997605138090923
  outer loop
    vertex 34.02704873738788 21.0 8.59744208385311
    vertex 33.570423044089544 41.0 8.607437332382887
    vertex 33.570423044089544 21.0 8.607437332382887
  endloop
endfacet
facet normal 0.021884127311360982 -0.0 0.9997605138090923
  outer loop
    vertex 33.570423044089544 41.0 8.607437332382887
    vertex 34.02704873738788 21.0 8.59744208385311
    vertex 34.02704873738788 41.0 8.59744208385311
  endloop
endfacet
facet normal 0.06758903538685287 -3.515592294358352e-17 -0.9977132465270144
  outer loop
    vertex 33.570423044089544 41.0 8.607437332382887
    vertex 32.88708681860763 21.0 8.561145437907209
    vertex 32.88708681860763 41.0 8.561145437907207
  endloop
endfacet
facet normal 0.06758903538685287 -3.515592294358352e-17 -0.9977132465270144
  outer loop
    vertex 32.88708681860763 21.0 8.561145437907209
    vertex 33.570423044089544 41.0 8.607437332382887
    vertex 33.570423044089544 21.0 8.607437332382887
  endloop
endfacet
facet normal -0.19958935718893075 3.444185244835179e-17 -0.9798796295958548
  outer loop
    vertex 37.770059201551945 41.0 8.2505237234536
    vertex 37.21071503362223 21.0 8.364455210089886
    vertex 37.21071503362223 41.0 8.364455210089886
  endloop
endfacet
facet normal -0.19958935718893075 3.444185244835179e-17 -0.9798796295958548
  outer loop
    vertex 37.21071503362223 21.0 8.364455210089886
    vertex 37.770059201551945 41.0 8.2505237234536
    vertex 37.770059201551945 21.0 8.250523723453599
  endloop
endfacet
facet normal 0.11118200606865059 3.493114259671391e-17 0.9938000611423561
  outer loop
    vertex 37.21071503362223 21.0 8.364455210089886
    vertex 36.53005895831339 41.0 8.440604036050575
    vertex 36.53005895831339 21.0 8.440604036050575
  endloop
endfacet
facet normal 0.11118200606865059 3.493114259671391e-17 0.9938000611423561
  outer loop
    vertex 36.53005895831339 41.0 8.440604036050575
    vertex 37.21071503362223 21.0 8.364455210089886
    vertex 37.21071503362223 41.0 8.364455210089886
  endloop
endfacet
facet normal -0.5420205557345574 -8.082656510570625e-17 0.8403652284341624
  outer loop
    vertex 16.375211251042124 21.0 5.367263378383141
    vertex 17.922919312766535 41.0 6.365507421980482
    vertex 16.37521125104212 41.0 5.3672633783831465
  endloop
endfacet
facet normal -0.5420205557345574 -8.082656510570625e-17 0.8403652284341624
  outer loop
    vertex 17.922919312766535 41.0 6.365507421980482
    vertex 16.375211251042124 21.0 5.367263378383141
    vertex 17.92291931276653 21.0 6.365507421980482
  endloop
endfacet
facet normal -0.5933092335179098 8.316796519487188e-17 0.8049746290550969
  outer loop
    vertex 15.611928371858319 21.0 4.852198347740287
    vertex 14.87070894308848 41.0 4.305880097103947
    vertex 14.870708943088475 21.0 4.305880097103953
  endloop
endfacet
facet normal -0.5933092335179098 8.316796519487188e-17 0.8049746290550969
  outer loop
    vertex 14.87070894308848 41.0 4.305880097103947
    vertex 15.611928371858319 21.0 4.852198347740287
    vertex 15.611928371858316 41.0 4.85219834774029
  endloop
endfacet
facet normal -0.5933092335179239 -3.5186099993063007e-16 0.8049746290550864
  outer loop
    vertex 15.611928371858319 21.0 4.852198347740287
    vertex 15.859141530704541 41.0 5.03440763048846
    vertex 15.611928371858316 41.0 4.85219834774029
  endloop
endfacet
facet normal -0.5933092335179239 -3.5186099993063007e-16 0.8049746290550864
  outer loop
    vertex 15.859141530704541 41.0 5.03440763048846
    vertex 15.611928371858319 21.0 4.852198347740287
    vertex 15.85914153070455 21.0 5.034407630488455
  endloop
endfacet
facet normal -0.5420205557345444 -3.894748076504109e-16 0.8403652284341705
  outer loop
    vertex 15.85914153070455 21.0 5.034407630488455
    vertex 16.37521125104212 41.0 5.3672633783831465
    vertex 15.859141530704541 41.0 5.03440763048846
  endloop
endfacet
facet normal -0.5420205557345444 -3.894748076504109e-16 0.8403652284341705
  outer loop
    vertex 16.37521125104212 41.0 5.3672633783831465
    vertex 15.85914153070455 21.0 5.034407630488455
    vertex 16.375211251042124 21.0 5.367263378383141
  endloop
endfacet
facet normal -0.5933092335179239 -3.516534948101779e-16 0.8049746290550862
  outer loop
    vertex 15.611928371858319 21.0 4.852198347740287
    vertex 15.859141530704541 41.0 5.03440763048846
    vertex 15.611928371858316 41.0 4.85219834774029
  endloop
endfacet
facet normal -0.5933092335179239 -3.516534948101779e-16 0.8049746290550862
  outer loop
    vertex 15.859141530704541 41.0 5.03440763048846
    vertex 15.611928371858319 21.0 4.852198347740287
    vertex 15.85914153070455 21.0 5.034407630488455
  endloop
endfacet
facet normal -0.6422940779054681 -4.492743496041376e-17 0.7664582946824728
  outer loop
    vertex 13.882276355472422 21.0 3.5773525637194337
    vertex 12.0 41.0 1.9999999999999998
    vertex 12.0 21.0 1.9999999999999998
  endloop
endfacet
facet normal -0.6422940779054681 -4.492743496041376e-17 0.7664582946824728
  outer loop
    vertex 12.0 41.0 1.9999999999999998
    vertex 13.882276355472422 21.0 3.5773525637194337
    vertex 13.88227635547242 41.0 3.5773525637194337
  endloop
endfacet
facet normal -0.5933092335179221 1.5607053245194828e-16 0.8049746290550877
  outer loop
    vertex 13.882276355472422 21.0 3.5773525637194337
    vertex 14.87070894308848 41.0 4.305880097103947
    vertex 13.88227635547242 41.0 3.5773525637194337
  endloop
endfacet
facet normal -0.5933092335179221 1.5607053245194828e-16 0.8049746290550877
  outer loop
    vertex 14.87070894308848 41.0 4.305880097103947
    vertex 13.882276355472422 21.0 3.5773525637194337
    vertex 14.870708943088475 21.0 4.305880097103953
  endloop
endfacet
facet normal -0.4886271996705034 1.0023924429571544e-16 0.8724926703085603
  outer loop
    vertex 19.529796767879855 21.0 7.265416450245455
    vertex 17.922919312766535 41.0 6.365507421980482
    vertex 17.92291931276653 21.0 6.365507421980482
  endloop
endfacet
facet normal -0.4886271996705034 1.0023924429571544e-16 0.8724926703085603
  outer loop
    vertex 17.922919312766535 41.0 6.365507421980482
    vertex 19.529796767879855 21.0 7.265416450245455
    vertex 19.529796767879855 41.0 7.2654164502454535
  endloop
endfacet
facet normal -0.4333364929550326 1.2489873814531307e-16 0.9012322030827756
  outer loop
    vertex 21.172223774926543 21.0 8.097579409611289
    vertex 20.34237051664171 41.0 7.698563818088501
    vertex 20.34237051664171 21.0 7.698563818088501
  endloop
endfacet
facet normal -0.4333364929550326 1.2489873814531307e-16 0.9012322030827756
  outer loop
    vertex 20.34237051664171 41.0 7.698563818088501
    vertex 21.172223774926543 21.0 8.097579409611289
    vertex 21.17222377492655 41.0 8.097579409611285
  endloop
endfacet
facet normal -0.4886271996704956 -3.8526215331400557e-17 0.8724926703085646
  outer loop
    vertex 20.06559600507784 21.0 7.565483247098943
    vertex 19.529796767879855 41.0 7.2654164502454535
    vertex 19.529796767879855 21.0 7.265416450245455
  endloop
endfacet
facet normal -0.4886271996704956 -3.8526215331400557e-17 0.8724926703085646
  outer loop
    vertex 19.529796767879855 41.0 7.2654164502454535
    vertex 20.06559600507784 21.0 7.565483247098943
    vertex 20.065596005077833 41.0 7.565483247098943
  endloop
endfacet
facet normal -0.43333649295503773 -6.122860151028014e-17 0.9012322030827731
  outer loop
    vertex 20.06559600507784 21.0 7.565483247098943
    vertex 20.34237051664171 41.0 7.698563818088501
    vertex 20.065596005077833 41.0 7.565483247098943
  endloop
endfacet
facet normal -0.43333649295503773 -6.122860151028014e-17 0.9012322030827731
  outer loop
    vertex 20.34237051664171 41.0 7.698563818088501
    vertex 20.06559600507784 21.0 7.565483247098943
    vertex 20.34237051664171 21.0 7.698563818088501
  endloop
endfacet
facet normal -0.37636313067363747 1.561795359728133e-16 0.9264722304902283
  outer loop
    vertex 24.5540918097084 21.0 9.553952113787318
    vertex 22.278851544775264 41.0 8.629675572123627
    vertex 22.278851544775264 21.0 8.629675572123627
  endloop
endfacet
facet normal -0.37636313067363747 1.561795359728133e-16 0.9264722304902283
  outer loop
    vertex 22.278851544775264 41.0 8.629675572123627
    vertex 24.5540918097084 21.0 9.553952113787318
    vertex 24.5540918097084 41.0 9.553952113787313
  endloop
endfacet
facet normal -0.43333649295502924 1.2613535931506828e-16 0.9012322030827771
  outer loop
    vertex 22.278851544775264 21.0 8.629675572123627
    vertex 21.17222377492655 41.0 8.097579409611285
    vertex 21.172223774926543 21.0 8.097579409611289
  endloop
endfacet
facet normal -0.43333649295502924 1.2613535931506828e-16 0.9012322030827771
  outer loop
    vertex 21.17222377492655 41.0 8.097579409611285
    vertex 22.278851544775264 21.0 8.629675572123627
    vertex 22.278851544775264 41.0 8.629675572123627
  endloop
endfacet
facet normal -0.31792834170205586 2.465801218504045e-16 0.9481147449241473
  outer loop
    vertex 26.882481989613517 21.0 10.334723885026683
    vertex 24.5540918097084 41.0 9.553952113787313
    vertex 24.5540918097084 21.0 9.553952113787318
  endloop
endfacet
facet normal -0.31792834170205586 2.465801218504045e-16 0.9481147449241473
  outer loop
    vertex 24.5540918097084 41.0 9.553952113787313
    vertex 26.882481989613517 21.0 10.334723885026683
    vertex 26.882481989613513 41.0 10.334723885026678
  endloop
endfacet
facet normal -0.25825902966945874 -3.685219739897497e-17 0.9660757080033581
  outer loop
    vertex 26.882481989613517 21.0 10.334723885026683
    vertex 28.06873144074923 41.0 10.651841508064123
    vertex 26.882481989613513 41.0 10.334723885026678
  endloop
endfacet
facet normal -0.25825902966945874 -3.685219739897497e-17 0.9660757080033581
  outer loop
    vertex 28.06873144074923 41.0 10.651841508064123
    vertex 26.882481989613517 21.0 10.334723885026683
    vertex 28.06873144074923 21.0 10.651841508064118
  endloop
endfacet
facet normal -0.19758689188646375 -0.0 0.9802853768952421
  outer loop
    vertex 31.662376048733883 21.0 11.454195101968388
    vertex 29.254980891884944 41.0 10.96895913110157
    vertex 29.254980891884944 21.0 10.96895913110157
  endloop
endfacet
facet normal -0.19758689188646375 -0.0 0.9802853768952421
  outer loop
    vertex 29.254980891884944 41.0 10.96895913110157
    vertex 31.662376048733883 21.0 11.454195101968388
    vertex 31.662376048733883 41.0 11.454195101968388
  endloop
endfacet
facet normal -0.2582590296694647 -1.3650238444200618e-16 0.9660757080033566
  outer loop
    vertex 29.254980891884944 21.0 10.96895913110157
    vertex 28.06873144074923 41.0 10.651841508064123
    vertex 28.06873144074923 21.0 10.651841508064118
  endloop
endfacet
facet normal -0.2582590296694647 -1.3650238444200618e-16 0.9660757080033566
  outer loop
    vertex 28.06873144074923 41.0 10.651841508064123
    vertex 29.254980891884944 21.0 10.96895913110157
    vertex 29.254980891884944 41.0 10.96895913110157
  endloop
endfacet
facet normal -0.1361475196591267 -2.990067544399427e-16 0.9906885751287676
  outer loop
    vertex 34.09531948941264 21.0 11.788547615195155
    vertex 31.662376048733883 41.0 11.454195101968388
    vertex 31.662376048733883 21.0 11.454195101968388
  endloop
endfacet
facet normal -0.1361475196591267 -2.990067544399427e-16 0.9906885751287676
  outer loop
    vertex 31.662376048733883 41.0 11.454195101968388
    vertex 34.09531948941264 21.0 11.788547615195155
    vertex 34.09531948941263 41.0 11.788547615195165
  endloop
endfacet
facet normal -0.011923406665859036 -2.8203646721632265e-16 0.9999289136601065
  outer loop
    vertex 38.99999999999999 21.0 11.999999999999995
    vertex 36.54436403859994 41.0 11.97071837228518
    vertex 36.54436403859994 21.0 11.97071837228518
  endloop
endfacet
facet normal -0.011923406665859036 -2.8203646721632265e-16 0.9999289136601065
  outer loop
    vertex 36.54436403859994 41.0 11.97071837228518
    vertex 38.99999999999999 21.0 11.999999999999995
    vertex 38.99999999999999 41.0 12.000000000000005
  endloop
endfacet
facet normal -0.011923406665859036 -2.8203646721632265e-16 0.9999289136601065
  outer loop
    vertex 38.99999999999999 41.0 12.000000000000005
    vertex 38.99999999999999 21.0 11.999999999999995
    vertex 38.99999999999999 31.0 12.0
  endloop
endfacet
facet normal -0.07417948348248107 -2.922567100131832e-16 0.9972449068459927
  outer loop
    vertex 34.09531948941264 21.0 11.788547615195155
    vertex 36.54436403859994 41.0 11.97071837228518
    vertex 34.09531948941263 41.0 11.788547615195165
  endloop
endfacet
facet normal -0.07417948348248107 -2.922567100131832e-16 0.9972449068459927
  outer loop
    vertex 36.54436403859994 41.0 11.97071837228518
    vertex 34.09531948941264 21.0 11.788547615195155
    vertex 36.54436403859994 21.0 11.97071837228518
  endloop
endfacet
facet normal 1.0 -5.639932965095795e-16 -0.0
  outer loop
    vertex 93.50000000000001 41.0 8.999999999999995
    vertex 93.5 21.0 11.999999999999995
    vertex 93.5 21.0 8.999999999999995
  endloop
endfacet
facet normal 1.0 -5.639932965095795e-16 -0.0
  outer loop
    vertex 93.5 21.0 11.999999999999995
    vertex 93.50000000000001 41.0 8.999999999999995
    vertex 93.50000000000001 41.0 11.999999999999995
  endloop
endfacet
facet normal -0.0 1.0 -0.0
  outer loop
    vertex 13.88227635547242 41.0 3.5773525637194337
    vertex 19.0 41.0 1.9999999999999998
    vertex 12.0 41.0 1.9999999999999998
  endloop
endfacet
facet normal -0.0 1.0 -0.0
  outer loop
    vertex 19.0 41.0 1.9999999999999998
    vertex 13.88227635547242 41.0 3.5773525637194337
    vertex 19.646594584105426 41.0 2.6445987252332435
  endloop
endfacet
facet normal -0.0 1.0 -0.0
  outer loop
    vertex 19.646594584105426 41.0 2.6445987252332435
    vertex 13.88227635547242 41.0 3.5773525637194337
    vertex 19.969729870521498 41.0 2.966736582279861
  endloop
endfacet
facet normal -0.0 1.0 -0.0
  outer loop
    vertex 19.969729870521498 41.0 2.966736582279861
    vertex 13.88227635547242 41.0 3.5773525637194337
    vertex 20.131398731730673 41.0 3.1279064163722996
  endloop
endfacet
facet normal -0.0 1.0 -0.0
  outer loop
    vertex 20.131398731730673 41.0 3.1279064163722996
    vertex 13.88227635547242 41.0 3.5773525637194337
    vertex 20.293189168210862 41.0 3.289197450466475
  endloop
endfacet
facet normal -0.0 1.0 -0.0
  outer loop
    vertex 20.293189168210862 41.0 3.289197450466475
    vertex 13.88227635547242 41.0 3.5773525637194337
    vertex 21.170125167465386 41.0 4.019364962324068
  endloop
endfacet
facet normal -0.0 1.0 -0.0
  outer loop
    vertex 21.170125167465386 41.0 4.019364962324068
    vertex 13.88227635547242 41.0 3.5773525637194337
    vertex 14.87070894308848 41.0 4.305880097103947
  endloop
endfacet
facet normal -0.0 1.0 -0.0
  outer loop
    vertex 21.170125167465386 41.0 4.019364962324068
    vertex 14.87070894308848 41.0 4.305880097103947
    vertex 21.696462537148534 41.0 4.45761182178235
  endloop
endfacet
facet normal -0.0 1.0 -0.0
  outer loop
    vertex 21.696462537148534 41.0 4.45761182178235
    vertex 14.87070894308848 41.0 4.305880097103947
    vertex 15.611928371858316 41.0 4.85219834774029
  endloop
endfacet
facet normal -0.0 1.0 -0.0
  outer loop
    vertex 21.696462537148534 41.0 4.45761182178235
    vertex 15.611928371858316 41.0 4.85219834774029
    vertex 22.072180180986724 41.0 4.717310071453088
  endloop
endfacet
facet normal -0.0 1.0 -0.0
  outer loop
    vertex 22.072180180986724 41.0 4.717310071453088
    vertex 15.611928371858316 41.0 4.85219834774029
    vertex 23.19858039490714 41.0 5.495884537628165
  endloop
endfacet
facet normal -0.0 1.0 -0.0
  outer loop
    vertex 23.19858039490714 41.0 5.495884537628165
    vertex 15.611928371858316 41.0 4.85219834774029
    vertex 15.859141530704541 41.0 5.03440763048846
  endloop
endfacet
facet normal -0.0 1.0 -0.0
  outer loop
    vertex 23.19858039490714 41.0 5.495884537628165
    vertex 15.859141530704541 41.0 5.03440763048846
    vertex 16.37521125104212 41.0 5.3672633783831465
  endloop
endfacet
facet normal -0.0 1.0 -0.0
  outer loop
    vertex 23.19858039490714 41.0 5.495884537628165
    vertex 16.37521125104212 41.0 5.3672633783831465
    vertex 17.922919312766535 41.0 6.365507421980482
  endloop
endfacet
facet normal -0.0 1.0 -0.0
  outer loop
    vertex 23.19858039490714 41.0 5.495884537628165
    vertex 17.922919312766535 41.0 6.365507421980482
    vertex 23.794553882864893 41.0 5.833385557184393
  endloop
endfacet
facet normal -0.0 1.0 -0.0
  outer loop
    vertex 23.794553882864893 41.0 5.833385557184393
    vertex 17.922919312766535 41.0 6.365507421980482
    vertex 24.787511320992575 41.0 6.395699409252568
  endloop
endfacet
facet normal -0.0 1.0 -0.0
  outer loop
    vertex 24.787511320992575 41.0 6.395699409252568
    vertex 17.922919312766535 41.0 6.365507421980482
    vertex 19.529796767879855 41.0 7.2654164502454535
  endloop
endfacet
facet normal -0.0 1.0 -0.0
  outer loop
    vertex 24.787511320992575 41.0 6.395699409252568
    vertex 19.529796767879855 41.0 7.2654164502454535
    vertex 24.83954371186852 41.0 6.419295207461489
  endloop
endfacet
facet normal -0.0 1.0 -0.0
  outer loop
    vertex 24.83954371186852 41.0 6.419295207461489
    vertex 19.529796767879855 41.0 7.2654164502454535
    vertex 24.891563879028908 41.0 6.442885462424724
  endloop
endfacet
facet normal -0.0 1.0 -0.0
  outer loop
    vertex 24.891563879028908 41.0 6.442885462424724
    vertex 19.529796767879855 41.0 7.2654164502454535
    vertex 24.99557081496243 41.0 6.490050826754525
  endloop
endfacet
facet normal -0.0 1.0 -0.0
  outer loop
    vertex 24.99557081496243 41.0 6.490050826754525
    vertex 19.529796767879855 41.0 7.2654164502454535
    vertex 25.203473965393577 41.0 6.584331345139074
  endloop
endfacet
facet normal -0.0 1.0 -0.0
  outer loop
    vertex 25.203473965393577 41.0 6.584331345139074
    vertex 19.529796767879855 41.0 7.2654164502454535
    vertex 25.61901993731981 41.0 6.772774327193764
  endloop
endfacet
facet normal -0.0 1.0 -0.0
  outer loop
    vertex 25.61901993731981 41.0 6.772774327193764
    vertex 19.529796767879855 41.0 7.2654164502454535
    vertex 26.034774245483426 41.0 6.961311786164362
  endloop
endfacet
facet normal -0.0 1.0 -0.0
  outer loop
    vertex 26.034774245483426 41.0 6.961311786164362
    vertex 19.529796767879855 41.0 7.2654164502454535
    vertex 26.450528553647043 41.0 7.14984924513496
  endloop
endfacet
facet normal -0.0 1.0 -0.0
  outer loop
    vertex 26.450528553647043 41.0 7.14984924513496
    vertex 19.529796767879855 41.0 7.2654164502454535
    vertex 26.881474396886656 41.0 7.300460328346635
  endloop
endfacet
facet normal -0.0 1.0 -0.0
  outer loop
    vertex 26.881474396886656 41.0 7.300460328346635
    vertex 19.529796767879855 41.0 7.2654164502454535
    vertex 20.065596005077833 41.0 7.565483247098943
  endloop
endfacet
facet normal -0.0 1.0 -0.0
  outer loop
    vertex 26.881474396886656 41.0 7.300460328346635
    vertex 20.065596005077833 41.0 7.565483247098943
    vertex 27.312420240126272 41.0 7.451071411558312
  endloop
endfacet
facet normal -0.0 1.0 -0.0
  outer loop
    vertex 27.312420240126272 41.0 7.451071411558312
    vertex 20.065596005077833 41.0 7.565483247098943
    vertex 28.1743119266055 41.0 7.752293577981654
  endloop
endfacet
facet normal -0.0 1.0 -0.0
  outer loop
    vertex 28.1743119266055 41.0 7.752293577981654
    vertex 20.065596005077833 41.0 7.565483247098943
    vertex 20.34237051664171 41.0 7.698563818088501
  endloop
endfacet
facet normal -0.0 1.0 -0.0
  outer loop
    vertex 28.1743119266055 41.0 7.752293577981654
    vertex 20.34237051664171 41.0 7.698563818088501
    vertex 21.17222377492655 41.0 8.097579409611285
  endloop
endfacet
facet normal -0.0 1.0 -0.0
  outer loop
    vertex 28.1743119266055 41.0 7.752293577981654
    vertex 21.17222377492655 41.0 8.097579409611285
    vertex 29.059683242706516 41.0 7.975250312332381
  endloop
endfacet
facet normal -0.0 1.0 -0.0
  outer loop
    vertex 29.059683242706516 41.0 7.975250312332381
    vertex 21.17222377492655 41.0 8.097579409611285
    vertex 29.945054558807534 41.0 8.198207046683107
  endloop
endfacet
facet normal -0.0 1.0 -0.0
  outer loop
    vertex 29.945054558807534 41.0 8.198207046683107
    vertex 21.17222377492655 41.0 8.097579409611285
    vertex 22.278851544775264 41.0 8.629675572123627
  endloop
endfacet
facet normal -0.0 1.0 -0.0
  outer loop
    vertex 29.945054558807534 41.0 8.198207046683107
    vertex 22.278851544775264 41.0 8.629675572123627
    vertex 30.396160217465166 41.0 8.2696956017142
  endloop
endfacet
facet normal -0.0 1.0 -0.0
  outer loop
    vertex 30.396160217465166 41.0 8.2696956017142
    vertex 22.278851544775264 41.0 8.629675572123627
    vertex 31.74857344251855 41.0 8.484018045710357
  endloop
endfacet
facet normal -0.0 1.0 -0.0
  outer loop
    vertex 31.74857344251855 41.0 8.484018045710357
    vertex 22.278851544775264 41.0 8.629675572123627
    vertex 32.88708681860763 41.0 8.561145437907207
  endloop
endfacet
facet normal -0.0 1.0 -0.0
  outer loop
    vertex 32.88708681860763 41.0 8.561145437907207
    vertex 22.278851544775264 41.0 8.629675572123627
    vertex 33.570423044089544 41.0 8.607437332382887
  endloop
endfacet
facet normal -0.0 1.0 -0.0
  outer loop
    vertex 47.823392250555585 41.0 4.85688941233374
    vertex 65.75 41.0 5.521992205822461
    vertex 66.25 41.0 5.52199220582245
  endloop
endfacet
facet normal -0.0 1.0 -0.0
  outer loop
    vertex 65.75 41.0 5.521992205822461
    vertex 47.823392250555585 41.0 4.85688941233374
    vertex 45.58920021918537 41.0 5.563099399418267
  endloop
endfacet
facet normal -0.0 1.0 -0.0
  outer loop
    vertex 65.75 41.0 5.521992205822461
    vertex 45.58920021918537 41.0 5.563099399418267
    vertex 63.64693156310239 41.0 5.61356994994463
  endloop
endfacet
facet normal -0.0 1.0 -0.0
  outer loop
    vertex 63.64693156310239 41.0 5.61356994994463
    vertex 45.58920021918537 41.0 5.563099399418267
    vertex 43.35500818781516 41.0 6.269309386502794
  endloop
endfacet
facet normal -0.0 1.0 -0.0
  outer loop
    vertex 63.64693156310239 41.0 5.61356994994463
    vertex 43.35500818781516 41.0 6.269309386502794
    vertex 61.54386312620477 41.0 5.705147694066799
  endloop
endfacet
facet normal -0.0 1.0 -0.0
  outer loop
    vertex 61.54386312620477 41.0 5.705147694066799
    vertex 43.35500818781516 41.0 6.269309386502794
    vertex 59.20502937922217 41.0 5.979326934560301
  endloop
endfacet
facet normal -0.0 1.0 -0.0
  outer loop
    vertex 59.20502937922217 41.0 5.979326934560301
    vertex 43.35500818781516 41.0 6.269309386502794
    vertex 56.866195632239545 41.0 6.253506175053803
  endloop
endfacet
facet normal -0.0 1.0 -0.0
  outer loop
    vertex 56.866195632239545 41.0 6.253506175053803
    vertex 43.35500818781516 41.0 6.269309386502794
    vertex 54.55574515352565 41.0 6.7086282876269
  endloop
endfacet
facet normal -0.0 1.0 -0.0
  outer loop
    vertex 54.55574515352565 41.0 6.7086282876269
    vertex 43.35500818781516 41.0 6.269309386502794
    vertex 41.17750409390758 41.0 7.134654693251398
  endloop
endfacet
facet normal -0.0 1.0 -0.0
  outer loop
    vertex 54.55574515352565 41.0 6.7086282876269
    vertex 41.17750409390758 41.0 7.134654693251398
    vertex 52.245294674811745 41.0 7.163750400199996
  endloop
endfacet
facet normal -0.0 1.0 -0.0
  outer loop
    vertex 52.245294674811745 41.0 7.163750400199996
    vertex 41.17750409390758 41.0 7.134654693251398
    vertex 38.99999999999999 41.0 8.0
  endloop
endfacet
facet normal -0.0 1.0 -0.0
  outer loop
    vertex 52.245294674811745 41.0 7.163750400199996
    vertex 38.99999999999999 41.0 8.0
    vertex 49.97720434052227 41.0 7.797062161850601
  endloop
endfacet
facet normal -0.0 1.0 -0.0
  outer loop
    vertex 49.97720434052227 41.0 7.797062161850601
    vertex 38.99999999999999 41.0 8.0
    vertex 47.7091140062328 41.0 8.430373923501206
  endloop
endfacet
facet normal -0.0 1.0 -0.0
  outer loop
    vertex 47.7091140062328 41.0 8.430373923501206
    vertex 38.99999999999999 41.0 8.0
    vertex 37.770059201551945 41.0 8.2505237234536
  endloop
endfacet
facet normal -0.0 1.0 -0.0
  outer loop
    vertex 47.7091140062328 41.0 8.430373923501206
    vertex 37.770059201551945 41.0 8.2505237234536
    vertex 37.21071503362223 41.0 8.364455210089886
  endloop
endfacet
facet normal -0.0 1.0 -0.0
  outer loop
    vertex 47.7091140062328 41.0 8.430373923501206
    vertex 37.21071503362223 41.0 8.364455210089886
    vertex 36.53005895831339 41.0 8.440604036050575
  endloop
endfacet
facet normal -0.0 1.0 -0.0
  outer loop
    vertex 47.7091140062328 41.0 8.430373923501206
    vertex 36.53005895831339 41.0 8.440604036050575
    vertex 45.497104438386906 41.0 9.238044167908244
  endloop
endfacet
facet normal -0.0 1.0 -0.0
  outer loop
    vertex 45.497104438386906 41.0 9.238044167908244
    vertex 36.53005895831339 41.0 8.440604036050575
    vertex 35.39601100745452 41.0 8.567476362874148
  endloop
endfacet
facet normal -0.0 1.0 -0.0
  outer loop
    vertex 45.497104438386906 41.0 9.238044167908244
    vertex 35.39601100745452 41.0 8.567476362874148
    vertex 34.02704873738788 41.0 8.59744208385311
  endloop
endfacet
facet normal -0.0 1.0 -0.0
  outer loop
    vertex 45.497104438386906 41.0 9.238044167908244
    vertex 34.02704873738788 41.0 8.59744208385311
    vertex 33.570423044089544 41.0 8.607437332382887
  endloop
endfacet
facet normal -0.0 1.0 -0.0
  outer loop
    vertex 45.497104438386906 41.0 9.238044167908244
    vertex 33.570423044089544 41.0 8.607437332382887
    vertex 22.278851544775264 41.0 8.629675572123627
  endloop
endfacet
facet normal -0.0 1.0 -0.0
  outer loop
    vertex 45.497104438386906 41.0 9.238044167908244
    vertex 22.278851544775264 41.0 8.629675572123627
    vertex 24.5540918097084 41.0 9.553952113787313
  endloop
endfacet
facet normal -0.0 1.0 -0.0
  outer loop
    vertex 45.497104438386906 41.0 9.238044167908244
    vertex 24.5540918097084 41.0 9.553952113787313
    vertex 43.285094870541016 41.0 10.045714412315283
  endloop
endfacet
facet normal -0.0 1.0 -0.0
  outer loop
    vertex 43.285094870541016 41.0 10.045714412315283
    vertex 24.5540918097084 41.0 9.553952113787313
    vertex 26.882481989613513 41.0 10.334723885026678
  endloop
endfacet
facet normal -0.0 1.0 -0.0
  outer loop
    vertex 43.285094870541016 41.0 10.045714412315283
    vertex 26.882481989613513 41.0 10.334723885026678
    vertex 41.14254743527051 41.0 11.022857206157644
  endloop
endfacet
facet normal -0.0 1.0 -0.0
  outer loop
    vertex 41.14254743527051 41.0 11.022857206157644
    vertex 26.882481989613513 41.0 10.334723885026678
    vertex 28.06873144074923 41.0 10.651841508064123
  endloop
endfacet
facet normal -0.0 1.0 -0.0
  outer loop
    vertex 41.14254743527051 41.0 11.022857206157644
    vertex 28.06873144074923 41.0 10.651841508064123
    vertex 29.254980891884944 41.0 10.96895913110157
  endloop
endfacet
facet normal -0.0 1.0 -0.0
  outer loop
    vertex 41.14254743527051 41.0 11.022857206157644
    vertex 29.254980891884944 41.0 10.96895913110157
    vertex 31.662376048733883 41.0 11.454195101968388
  endloop
endfacet
facet normal -0.0 1.0 -0.0
  outer loop
    vertex 41.14254743527051 41.0 11.022857206157644
    vertex 31.662376048733883 41.0 11.454195101968388
    vertex 38.99999999999999 41.0 12.000000000000005
  endloop
endfacet
facet normal -0.0 1.0 -0.0
  outer loop
    vertex 38.99999999999999 41.0 12.000000000000005
    vertex 31.662376048733883 41.0 11.454195101968388
    vertex 34.09531948941263 41.0 11.788547615195165
  endloop
endfacet
facet normal -0.0 1.0 -0.0
  outer loop
    vertex 38.99999999999999 41.0 12.000000000000005
    vertex 34.09531948941263 41.0 11.788547615195165
    vertex 36.54436403859994 41.0 11.97071837228518
  endloop
endfacet
facet normal -0.0 1.0 -0.0
  outer loop
    vertex 65.75 41.0 2.5219922058224613
    vertex 71.039251067888 41.0 2.7660095858471463
    vertex 66.359886411443 41.0 2.5111905763567344
  endloop
endfacet
facet normal -0.0 1.0 -0.0
  outer loop
    vertex 71.039251067888 41.0 2.7660095858471463
    vertex 65.75 41.0 2.5219922058224613
    vertex 61.67432350755281 41.0 2.5941760526299786
  endloop
endfacet
facet normal -0.0 1.0 -0.0
  outer loop
    vertex 71.039251067888 41.0 2.7660095858471463
    vertex 61.67432350755281 41.0 2.5941760526299786
    vertex 57.00691684601727 41.0 3.014534675044067
  endloop
endfacet
facet normal -0.0 1.0 -0.0
  outer loop
    vertex 71.039251067888 41.0 2.7660095858471463
    vertex 57.00691684601727 41.0 3.014534675044067
    vertex 75.68809520416777 41.0 3.3573085898725137
  endloop
endfacet
facet normal -0.0 1.0 -0.0
  outer loop
    vertex 75.68809520416777 41.0 3.3573085898725137
    vertex 57.00691684601727 41.0 3.014534675044067
    vertex 52.38192654461983 41.0 3.7700815151300504
  endloop
endfacet
facet normal -0.0 1.0 -0.0
  outer loop
    vertex 75.68809520416777 41.0 3.3573085898725137
    vertex 52.38192654461983 41.0 3.7700815151300504
    vertex 80.28225518628135 41.0 4.282014150756865
  endloop
endfacet
facet normal -0.0 1.0 -0.0
  outer loop
    vertex 80.28225518628135 41.0 4.282014150756865
    vertex 52.38192654461983 41.0 3.7700815151300504
    vertex 47.823392250555585 41.0 4.85688941233374
  endloop
endfacet
facet normal -0.0 1.0 -0.0
  outer loop
    vertex 80.28225518628135 41.0 4.282014150756865
    vertex 47.823392250555585 41.0 4.85688941233374
    vertex 84.79785161601802 41.0 5.535319859406465
  endloop
endfacet
facet normal -0.0 1.0 -0.0
  outer loop
    vertex 84.79785161601802 41.0 5.535319859406465
    vertex 47.823392250555585 41.0 4.85688941233374
    vertex 66.25 41.0 5.52199220582245
  endloop
endfacet
facet normal -0.0 1.0 -0.0
  outer loop
    vertex 84.79785161601802 41.0 5.535319859406465
    vertex 66.25 41.0 5.52199220582245
    vertex 68.60306843689763 41.0 5.613569949944624
  endloop
endfacet
facet normal -0.0 1.0 -0.0
  outer loop
    vertex 84.79785161601802 41.0 5.535319859406465
    vertex 68.60306843689763 41.0 5.613569949944624
    vertex 70.95613687379523 41.0 5.705147694066799
  endloop
endfacet
facet normal -0.0 1.0 -0.0
  outer loop
    vertex 84.79785161601802 41.0 5.535319859406465
    vertex 70.95613687379523 41.0 5.705147694066799
    vertex 89.21141345063563 41.0 7.110711317930694
  endloop
endfacet
facet normal -0.0 1.0 -0.0
  outer loop
    vertex 89.21141345063563 41.0 7.110711317930694
    vertex 70.95613687379523 41.0 5.705147694066799
    vertex 73.29497062077785 41.0 5.979326934560307
  endloop
endfacet
facet normal -0.0 1.0 -0.0
  outer loop
    vertex 89.21141345063563 41.0 7.110711317930694
    vertex 73.29497062077785 41.0 5.979326934560307
    vertex 75.63380436776046 41.0 6.253506175053815
  endloop
endfacet
facet normal -0.0 1.0 -0.0
  outer loop
    vertex 89.21141345063563 41.0 7.110711317930694
    vertex 75.63380436776046 41.0 6.253506175053815
    vertex 77.94425484647435 41.0 6.7086282876269
  endloop
endfacet
facet normal -0.0 1.0 -0.0
  outer loop
    vertex 89.21141345063563 41.0 7.110711317930694
    vertex 77.94425484647435 41.0 6.7086282876269
    vertex 80.25470532518827 41.0 7.1637504001999845
  endloop
endfacet
facet normal -0.0 1.0 -0.0
  outer loop
    vertex 89.21141345063563 41.0 7.110711317930694
    vertex 80.25470532518827 41.0 7.1637504001999845
    vertex 93.50000000000001 41.0 8.999999999999995
  endloop
endfacet
facet normal -0.0 1.0 -0.0
  outer loop
    vertex 93.50000000000001 41.0 8.999999999999995
    vertex 80.25470532518827 41.0 7.1637504001999845
    vertex 82.52279565947772 41.0 7.7970621618505955
  endloop
endfacet
facet normal -0.0 1.0 -0.0
  outer loop
    vertex 93.50000000000001 41.0 8.999999999999995
    vertex 82.52279565947772 41.0 7.7970621618505955
    vertex 84.79088599376719 41.0 8.430373923501206
  endloop
endfacet
facet normal -0.0 1.0 -0.0
  outer loop
    vertex 93.50000000000001 41.0 8.999999999999995
    vertex 84.79088599376719 41.0 8.430373923501206
    vertex 87.00289556161309 41.0 9.238044167908244
  endloop
endfacet
facet normal -0.0 1.0 -0.0
  outer loop
    vertex 93.50000000000001 41.0 8.999999999999995
    vertex 87.00289556161309 41.0 9.238044167908244
    vertex 89.21490512945898 41.0 10.045714412315283
  endloop
endfacet
facet normal -0.0 1.0 -0.0
  outer loop
    vertex 93.50000000000001 41.0 8.999999999999995
    vertex 89.21490512945898 41.0 10.045714412315283
    vertex 93.50000000000001 41.0 11.999999999999995
  endloop
endfacet
facet normal 2.696213791212384e-31 -1.0 2.1767837462993074e-30
  outer loop
    vertex 47.823392250555564 21.0 4.8568894123337625
    vertex 65.75 21.0 5.521992205822462
    vertex 45.58920021918535 21.0 5.563099399418278
  endloop
endfacet
facet normal 2.696213791212384e-31 -1.0 2.1767837462993074e-30
  outer loop
    vertex 65.75 21.0 5.521992205822462
    vertex 47.823392250555564 21.0 4.8568894123337625
    vertex 66.24999999999999 21.0 5.521992205822461
  endloop
endfacet
facet normal 2.696213791212384e-31 -1.0 2.1767837462993074e-30
  outer loop
    vertex 45.58920021918535 21.0 5.563099399418278
    vertex 65.75 21.0 5.521992205822462
    vertex 63.646931563102385 21.0 5.613569949944642
  endloop
endfacet
facet normal 2.696213791212384e-31 -1.0 2.1767837462993074e-30
  outer loop
    vertex 45.58920021918535 21.0 5.563099399418278
    vertex 63.646931563102385 21.0 5.613569949944642
    vertex 43.35500818781514 21.0 6.269309386502794
  endloop
endfacet
facet normal 2.696213791212384e-31 -1.0 2.1767837462993074e-30
  outer loop
    vertex 43.35500818781514 21.0 6.269309386502794
    vertex 63.646931563102385 21.0 5.613569949944642
    vertex 61.54386312620476 21.0 5.705147694066821
  endloop
endfacet
facet normal 2.696213791212384e-31 -1.0 2.1767837462993074e-30
  outer loop
    vertex 43.35500818781514 21.0 6.269309386502794
    vertex 61.54386312620476 21.0 5.705147694066821
    vertex 59.20502937922214 21.0 5.979326934560324
  endloop
endfacet
facet normal 2.696213791212384e-31 -1.0 2.1767837462993074e-30
  outer loop
    vertex 43.35500818781514 21.0 6.269309386502794
    vertex 59.20502937922214 21.0 5.979326934560324
    vertex 56.86619563223954 21.0 6.2535061750538254
  endloop
endfacet
facet normal 2.696213791212384e-31 -1.0 2.1767837462993074e-30
  outer loop
    vertex 43.35500818781514 21.0 6.269309386502794
    vertex 56.86619563223954 21.0 6.2535061750538254
    vertex 54.55574515352564 21.0 6.708628287626917
  endloop
endfacet
facet normal 2.696213791212384e-31 -1.0 2.1767837462993074e-30
  outer loop
    vertex 43.35500818781514 21.0 6.269309386502794
    vertex 54.55574515352564 21.0 6.708628287626917
    vertex 41.177504093907565 21.0 7.134654693251398
  endloop
endfacet
facet normal 2.696213791212384e-31 -1.0 2.1767837462993074e-30
  outer loop
    vertex 41.177504093907565 21.0 7.134654693251398
    vertex 54.55574515352564 21.0 6.708628287626917
    vertex 52.245294674811745 21.0 7.163750400200008
  endloop
endfacet
facet normal 2.696213791212384e-31 -1.0 2.1767837462993074e-30
  outer loop
    vertex 41.177504093907565 21.0 7.134654693251398
    vertex 52.245294674811745 21.0 7.163750400200008
    vertex 38.99999999999999 21.0 8.0
  endloop
endfacet
facet normal 2.696213791212384e-31 -1.0 2.1767837462993074e-30
  outer loop
    vertex 38.99999999999999 21.0 8.0
    vertex 52.245294674811745 21.0 7.163750400200008
    vertex 49.97720434052228 21.0 7.797062161850612
  endloop
endfacet
facet normal 2.696213791212384e-31 -1.0 2.1767837462993074e-30
  outer loop
    vertex 38.99999999999999 21.0 8.0
    vertex 49.97720434052228 21.0 7.797062161850612
    vertex 47.70911400623281 21.0 8.430373923501216
  endloop
endfacet
facet normal 2.696213791212384e-31 -1.0 2.1767837462993074e-30
  outer loop
    vertex 38.99999999999999 21.0 8.0
    vertex 47.70911400623281 21.0 8.430373923501216
    vertex 37.770059201551945 21.0 8.250523723453599
  endloop
endfacet
facet normal 2.696213791212384e-31 -1.0 2.1767837462993074e-30
  outer loop
    vertex 37.770059201551945 21.0 8.250523723453599
    vertex 47.70911400623281 21.0 8.430373923501216
    vertex 37.21071503362223 21.0 8.364455210089886
  endloop
endfacet
facet normal 2.696213791212384e-31 -1.0 2.1767837462993074e-30
  outer loop
    vertex 37.21071503362223 21.0 8.364455210089886
    vertex 47.70911400623281 21.0 8.430373923501216
    vertex 36.53005895831339 21.0 8.440604036050575
  endloop
endfacet
facet normal 2.696213791212384e-31 -1.0 2.1767837462993074e-30
  outer loop
    vertex 36.53005895831339 21.0 8.440604036050575
    vertex 47.70911400623281 21.0 8.430373923501216
    vertex 45.49710443838692 21.0 9.238044167908255
  endloop
endfacet
facet normal 2.696213791212384e-31 -1.0 2.1767837462993074e-30
  outer loop
    vertex 36.53005895831339 21.0 8.440604036050575
    vertex 45.49710443838692 21.0 9.238044167908255
    vertex 35.39601100745452 21.0 8.567476362874148
  endloop
endfacet
facet normal 2.696213791212384e-31 -1.0 2.1767837462993074e-30
  outer loop
    vertex 35.39601100745452 21.0 8.567476362874148
    vertex 45.49710443838692 21.0 9.238044167908255
    vertex 34.02704873738788 21.0 8.59744208385311
  endloop
endfacet
facet normal 2.696213791212384e-31 -1.0 2.1767837462993074e-30
  outer loop
    vertex 34.02704873738788 21.0 8.59744208385311
    vertex 45.49710443838692 21.0 9.238044167908255
    vertex 33.570423044089544 21.0 8.607437332382887
  endloop
endfacet
facet normal 2.696213791212384e-31 -1.0 2.1767837462993074e-30
  outer loop
    vertex 33.570423044089544 21.0 8.607437332382887
    vertex 45.49710443838692 21.0 9.238044167908255
    vertex 22.278851544775264 21.0 8.629675572123627
  endloop
endfacet
facet normal 2.696213791212384e-31 -1.0 2.1767837462993074e-30
  outer loop
    vertex 22.278851544775264 21.0 8.629675572123627
    vertex 45.49710443838692 21.0 9.238044167908255
    vertex 24.5540918097084 21.0 9.553952113787318
  endloop
endfacet
facet normal 2.696213791212384e-31 -1.0 2.1767837462993074e-30
  outer loop
    vertex 24.5540918097084 21.0 9.553952113787318
    vertex 45.49710443838692 21.0 9.238044167908255
    vertex 43.28509487054103 21.0 10.045714412315293
  endloop
endfacet
facet normal 2.696213791212384e-31 -1.0 2.1767837462993074e-30
  outer loop
    vertex 24.5540918097084 21.0 9.553952113787318
    vertex 43.28509487054103 21.0 10.045714412315293
    vertex 26.882481989613517 21.0 10.334723885026683
  endloop
endfacet
facet normal 2.696213791212384e-31 -1.0 2.1767837462993074e-30
  outer loop
    vertex 26.882481989613517 21.0 10.334723885026683
    vertex 43.28509487054103 21.0 10.045714412315293
    vertex 41.142547435270515 21.0 11.022857206157644
  endloop
endfacet
facet normal 2.696213791212384e-31 -1.0 2.1767837462993074e-30
  outer loop
    vertex 26.882481989613517 21.0 10.334723885026683
    vertex 41.142547435270515 21.0 11.022857206157644
    vertex 28.06873144074923 21.0 10.651841508064118
  endloop
endfacet
facet normal 2.696213791212384e-31 -1.0 2.1767837462993074e-30
  outer loop
    vertex 28.06873144074923 21.0 10.651841508064118
    vertex 41.142547435270515 21.0 11.022857206157644
    vertex 29.254980891884944 21.0 10.96895913110157
  endloop
endfacet
facet normal 2.696213791212384e-31 -1.0 2.1767837462993074e-30
  outer loop
    vertex 29.254980891884944 21.0 10.96895913110157
    vertex 41.142547435270515 21.0 11.022857206157644
    vertex 31.662376048733883 21.0 11.454195101968388
  endloop
endfacet
facet normal 2.696213791212384e-31 -1.0 2.1767837462993074e-30
  outer loop
    vertex 31.662376048733883 21.0 11.454195101968388
    vertex 41.142547435270515 21.0 11.022857206157644
    vertex 38.99999999999999 21.0 11.999999999999995
  endloop
endfacet
facet normal 2.696213791212384e-31 -1.0 2.1767837462993074e-30
  outer loop
    vertex 31.662376048733883 21.0 11.454195101968388
    vertex 38.99999999999999 21.0 11.999999999999995
    vertex 34.09531948941264 21.0 11.788547615195155
  endloop
endfacet
facet normal 2.696213791212384e-31 -1.0 2.1767837462993074e-30
  outer loop
    vertex 34.09531948941264 21.0 11.788547615195155
    vertex 38.99999999999999 21.0 11.999999999999995
    vertex 36.54436403859994 21.0 11.97071837228518
  endloop
endfacet
facet normal 2.696213791212384e-31 -1.0 2.1767837462993074e-30
  outer loop
    vertex 19.646594584105433 21.0 2.6445987252332372
    vertex 12.0 21.0 1.9999999999999998
    vertex 19.0 21.0 1.9999999999999998
  endloop
endfacet
facet normal 2.696213791212384e-31 -1.0 2.1767837462993074e-30
  outer loop
    vertex 12.0 21.0 1.9999999999999998
    vertex 19.646594584105433 21.0 2.6445987252332372
    vertex 13.882276355472422 21.0 3.5773525637194337
  endloop
endfacet
facet normal 2.696213791212384e-31 -1.0 2.1767837462993074e-30
  outer loop
    vertex 13.882276355472422 21.0 3.5773525637194337
    vertex 19.646594584105433 21.0 2.6445987252332372
    vertex 19.969891876158147 21.0 2.9668980878498563
  endloop
endfacet
facet normal 2.696213791212384e-31 -1.0 2.1767837462993074e-30
  outer loop
    vertex 13.882276355472422 21.0 3.5773525637194337
    vertex 19.969891876158147 21.0 2.9668980878498563
    vertex 20.293189168210862 21.0 3.289197450466475
  endloop
endfacet
facet normal 2.696213791212384e-31 -1.0 2.1767837462993074e-30
  outer loop
    vertex 13.882276355472422 21.0 3.5773525637194337
    vertex 20.293189168210862 21.0 3.289197450466475
    vertex 20.468752199855768 21.0 3.435377356524968
  endloop
endfacet
facet normal 2.696213791212384e-31 -1.0 2.1767837462993074e-30
  outer loop
    vertex 13.882276355472422 21.0 3.5773525637194337
    vertex 20.468752199855768 21.0 3.435377356524968
    vertex 21.17012516746539 21.0 4.019364962324066
  endloop
endfacet
facet normal 2.696213791212384e-31 -1.0 2.1767837462993074e-30
  outer loop
    vertex 13.882276355472422 21.0 3.5773525637194337
    vertex 21.17012516746539 21.0 4.019364962324066
    vertex 14.870708943088475 21.0 4.305880097103953
  endloop
endfacet
facet normal 2.696213791212384e-31 -1.0 2.1767837462993074e-30
  outer loop
    vertex 14.870708943088475 21.0 4.305880097103953
    vertex 21.17012516746539 21.0 4.019364962324066
    vertex 21.696462537148534 21.0 4.45761182178235
  endloop
endfacet
facet normal 2.696213791212384e-31 -1.0 2.1767837462993074e-30
  outer loop
    vertex 14.870708943088475 21.0 4.305880097103953
    vertex 21.696462537148534 21.0 4.45761182178235
    vertex 15.611928371858319 21.0 4.852198347740287
  endloop
endfacet
facet normal 2.696213791212384e-31 -1.0 2.1767837462993074e-30
  outer loop
    vertex 15.611928371858319 21.0 4.852198347740287
    vertex 21.696462537148534 21.0 4.45761182178235
    vertex 22.072180180986724 21.0 4.717310071453088
  endloop
endfacet
facet normal 2.696213791212384e-31 -1.0 2.1767837462993074e-30
  outer loop
    vertex 15.611928371858319 21.0 4.852198347740287
    vertex 22.072180180986724 21.0 4.717310071453088
    vertex 23.19858039490714 21.0 5.495884537628165
  endloop
endfacet
facet normal 2.696213791212384e-31 -1.0 2.1767837462993074e-30
  outer loop
    vertex 15.611928371858319 21.0 4.852198347740287
    vertex 23.19858039490714 21.0 5.495884537628165
    vertex 15.85914153070455 21.0 5.034407630488455
  endloop
endfacet
facet normal 2.696213791212384e-31 -1.0 2.1767837462993074e-30
  outer loop
    vertex 15.85914153070455 21.0 5.034407630488455
    vertex 23.19858039490714 21.0 5.495884537628165
    vertex 16.375211251042124 21.0 5.367263378383141
  endloop
endfacet
facet normal 2.696213791212384e-31 -1.0 2.1767837462993074e-30
  outer loop
    vertex 16.375211251042124 21.0 5.367263378383141
    vertex 23.19858039490714 21.0 5.495884537628165
    vertex 17.92291931276653 21.0 6.365507421980482
  endloop
endfacet
facet normal 2.696213791212384e-31 -1.0 2.1767837462993074e-30
  outer loop
    vertex 17.92291931276653 21.0 6.365507421980482
    vertex 23.19858039490714 21.0 5.495884537628165
    vertex 23.794553882864893 21.0 5.833385557184393
  endloop
endfacet
facet normal 2.696213791212384e-31 -1.0 2.1767837462993074e-30
  outer loop
    vertex 17.92291931276653 21.0 6.365507421980482
    vertex 23.794553882864893 21.0 5.833385557184393
    vertex 24.688094234894 21.0 6.339399307658192
  endloop
endfacet
facet normal 2.696213791212384e-31 -1.0 2.1767837462993074e-30
  outer loop
    vertex 17.92291931276653 21.0 6.365507421980482
    vertex 24.688094234894 21.0 6.339399307658192
    vertex 24.787511320992575 21.0 6.395699409252568
  endloop
endfacet
facet normal 2.696213791212384e-31 -1.0 2.1767837462993074e-30
  outer loop
    vertex 17.92291931276653 21.0 6.365507421980482
    vertex 24.787511320992575 21.0 6.395699409252568
    vertex 19.529796767879855 21.0 7.265416450245455
  endloop
endfacet
facet normal 2.696213791212384e-31 -1.0 2.1767837462993074e-30
  outer loop
    vertex 19.529796767879855 21.0 7.265416450245455
    vertex 24.787511320992575 21.0 6.395699409252568
    vertex 24.839452484088003 21.0 6.419253837225296
  endloop
endfacet
facet normal 2.696213791212384e-31 -1.0 2.1767837462993074e-30
  outer loop
    vertex 19.529796767879855 21.0 7.265416450245455
    vertex 24.839452484088003 21.0 6.419253837225296
    vertex 24.995388475074385 21.0 6.489968138737868
  endloop
endfacet
facet normal 2.696213791212384e-31 -1.0 2.1767837462993074e-30
  outer loop
    vertex 19.529796767879855 21.0 7.265416450245455
    vertex 24.995388475074385 21.0 6.489968138737868
    vertex 25.203265629156196 21.0 6.584236868223166
  endloop
endfacet
facet normal 2.696213791212384e-31 -1.0 2.1767837462993074e-30
  outer loop
    vertex 19.529796767879855 21.0 7.265416450245455
    vertex 25.203265629156196 21.0 6.584236868223166
    vertex 25.61901993731981 21.0 6.772774327193764
  endloop
endfacet
facet normal 2.696213791212384e-31 -1.0 2.1767837462993074e-30
  outer loop
    vertex 19.529796767879855 21.0 7.265416450245455
    vertex 25.61901993731981 21.0 6.772774327193764
    vertex 26.034774245483426 21.0 6.961311786164362
  endloop
endfacet
facet normal 2.696213791212384e-31 -1.0 2.1767837462993074e-30
  outer loop
    vertex 19.529796767879855 21.0 7.265416450245455
    vertex 26.034774245483426 21.0 6.961311786164362
    vertex 26.450528553647043 21.0 7.14984924513496
  endloop
endfacet
facet normal 2.696213791212384e-31 -1.0 2.1767837462993074e-30
  outer loop
    vertex 19.529796767879855 21.0 7.265416450245455
    vertex 26.450528553647043 21.0 7.14984924513496
    vertex 26.881474396886656 21.0 7.300460328346633
  endloop
endfacet
facet normal 2.696213791212384e-31 -1.0 2.1767837462993074e-30
  outer loop
    vertex 19.529796767879855 21.0 7.265416450245455
    vertex 26.881474396886656 21.0 7.300460328346633
    vertex 20.06559600507784 21.0 7.565483247098943
  endloop
endfacet
facet normal 2.696213791212384e-31 -1.0 2.1767837462993074e-30
  outer loop
    vertex 20.06559600507784 21.0 7.565483247098943
    vertex 26.881474396886656 21.0 7.300460328346633
    vertex 27.312420240126272 21.0 7.451071411558307
  endloop
endfacet
facet normal 2.696213791212384e-31 -1.0 2.1767837462993074e-30
  outer loop
    vertex 20.06559600507784 21.0 7.565483247098943
    vertex 27.312420240126272 21.0 7.451071411558307
    vertex 28.1743119266055 21.0 7.752293577981654
  endloop
endfacet
facet normal 2.696213791212384e-31 -1.0 2.1767837462993074e-30
  outer loop
    vertex 20.06559600507784 21.0 7.565483247098943
    vertex 28.1743119266055 21.0 7.752293577981654
    vertex 20.34237051664171 21.0 7.698563818088501
  endloop
endfacet
facet normal 2.696213791212384e-31 -1.0 2.1767837462993074e-30
  outer loop
    vertex 20.34237051664171 21.0 7.698563818088501
    vertex 28.1743119266055 21.0 7.752293577981654
    vertex 21.172223774926543 21.0 8.097579409611289
  endloop
endfacet
facet normal 2.696213791212384e-31 -1.0 2.1767837462993074e-30
  outer loop
    vertex 21.172223774926543 21.0 8.097579409611289
    vertex 28.1743119266055 21.0 7.752293577981654
    vertex 29.059683242706516 21.0 7.975250312332381
  endloop
endfacet
facet normal 2.696213791212384e-31 -1.0 2.1767837462993074e-30
  outer loop
    vertex 21.172223774926543 21.0 8.097579409611289
    vertex 29.059683242706516 21.0 7.975250312332381
    vertex 29.945054558807534 21.0 8.198207046683107
  endloop
endfacet
facet normal 2.696213791212384e-31 -1.0 2.1767837462993074e-30
  outer loop
    vertex 21.172223774926543 21.0 8.097579409611289
    vertex 29.945054558807534 21.0 8.198207046683107
    vertex 22.278851544775264 21.0 8.629675572123627
  endloop
endfacet
facet normal 2.696213791212384e-31 -1.0 2.1767837462993074e-30
  outer loop
    vertex 22.278851544775264 21.0 8.629675572123627
    vertex 29.945054558807534 21.0 8.198207046683107
    vertex 30.396160217465166 21.0 8.269695601714199
  endloop
endfacet
facet normal 2.696213791212384e-31 -1.0 2.1767837462993074e-30
  outer loop
    vertex 22.278851544775264 21.0 8.629675572123627
    vertex 30.396160217465166 21.0 8.269695601714199
    vertex 31.74857344251855 21.0 8.484018045710357
  endloop
endfacet
facet normal 2.696213791212384e-31 -1.0 2.1767837462993074e-30
  outer loop
    vertex 22.278851544775264 21.0 8.629675572123627
    vertex 31.74857344251855 21.0 8.484018045710357
    vertex 32.88708681860763 21.0 8.561145437907209
  endloop
endfacet
facet normal 2.696213791212384e-31 -1.0 2.1767837462993074e-30
  outer loop
    vertex 22.278851544775264 21.0 8.629675572123627
    vertex 32.88708681860763 21.0 8.561145437907209
    vertex 33.570423044089544 21.0 8.607437332382887
  endloop
endfacet
facet normal 2.696213791212384e-31 -1.0 2.1767837462993074e-30
  outer loop
    vertex 71.03925106788799 21.0 2.7660095858471463
    vertex 65.75 21.0 2.521992205822462
    vertex 66.359886411443 21.0 2.5111905763567344
  endloop
endfacet
facet normal 2.696213791212384e-31 -1.0 2.1767837462993074e-30
  outer loop
    vertex 65.75 21.0 2.521992205822462
    vertex 71.03925106788799 21.0 2.7660095858471463
    vertex 61.67432350755279 21.0 2.5941760526299897
  endloop
endfacet
facet normal 2.696213791212384e-31 -1.0 2.1767837462993074e-30
  outer loop
    vertex 61.67432350755279 21.0 2.5941760526299897
    vertex 71.03925106788799 21.0 2.7660095858471463
    vertex 57.006916846017255 21.0 3.0145346750440787
  endloop
endfacet
facet normal 2.696213791212384e-31 -1.0 2.1767837462993074e-30
  outer loop
    vertex 57.006916846017255 21.0 3.0145346750440787
    vertex 71.03925106788799 21.0 2.7660095858471463
    vertex 75.68809520416775 21.0 3.357308589872525
  endloop
endfacet
facet normal 2.696213791212384e-31 -1.0 2.1767837462993074e-30
  outer loop
    vertex 57.006916846017255 21.0 3.0145346750440787
    vertex 75.68809520416775 21.0 3.357308589872525
    vertex 52.38192654461982 21.0 3.770081515130062
  endloop
endfacet
facet normal 2.696213791212384e-31 -1.0 2.1767837462993074e-30
  outer loop
    vertex 52.38192654461982 21.0 3.770081515130062
    vertex 75.68809520416775 21.0 3.357308589872525
    vertex 80.28225518628135 21.0 4.282014150756865
  endloop
endfacet
facet normal 2.696213791212384e-31 -1.0 2.1767837462993074e-30
  outer loop
    vertex 52.38192654461982 21.0 3.770081515130062
    vertex 80.28225518628135 21.0 4.282014150756865
    vertex 47.823392250555564 21.0 4.8568894123337625
  endloop
endfacet
facet normal 2.696213791212384e-31 -1.0 2.1767837462993074e-30
  outer loop
    vertex 47.823392250555564 21.0 4.8568894123337625
    vertex 80.28225518628135 21.0 4.282014150756865
    vertex 84.79785161601801 21.0 5.535319859406454
  endloop
endfacet
facet normal 2.696213791212384e-31 -1.0 2.1767837462993074e-30
  outer loop
    vertex 47.823392250555564 21.0 4.8568894123337625
    vertex 84.79785161601801 21.0 5.535319859406454
    vertex 66.24999999999999 21.0 5.521992205822461
  endloop
endfacet
facet normal 2.696213791212384e-31 -1.0 2.1767837462993074e-30
  outer loop
    vertex 66.24999999999999 21.0 5.521992205822461
    vertex 84.79785161601801 21.0 5.535319859406454
    vertex 68.6030684368976 21.0 5.613569949944636
  endloop
endfacet
facet normal 2.696213791212384e-31 -1.0 2.1767837462993074e-30
  outer loop
    vertex 68.6030684368976 21.0 5.613569949944636
    vertex 84.79785161601801 21.0 5.535319859406454
    vertex 70.95613687379522 21.0 5.70514769406681
  endloop
endfacet
facet normal 2.696213791212384e-31 -1.0 2.1767837462993074e-30
  outer loop
    vertex 70.95613687379522 21.0 5.70514769406681
    vertex 84.79785161601801 21.0 5.535319859406454
    vertex 89.21141345063562 21.0 7.110711317930694
  endloop
endfacet
facet normal 2.696213791212384e-31 -1.0 2.1767837462993074e-30
  outer loop
    vertex 70.95613687379522 21.0 5.70514769406681
    vertex 89.21141345063562 21.0 7.110711317930694
    vertex 73.29497062077785 21.0 5.9793269345603175
  endloop
endfacet
facet normal 2.696213791212384e-31 -1.0 2.1767837462993074e-30
  outer loop
    vertex 73.29497062077785 21.0 5.9793269345603175
    vertex 89.21141345063562 21.0 7.110711317930694
    vertex 75.63380436776045 21.0 6.2535061750538254
  endloop
endfacet
facet normal 2.696213791212384e-31 -1.0 2.1767837462993074e-30
  outer loop
    vertex 75.63380436776045 21.0 6.2535061750538254
    vertex 89.21141345063562 21.0 7.110711317930694
    vertex 77.94425484647435 21.0 6.708628287626917
  endloop
endfacet
facet normal 2.696213791212384e-31 -1.0 2.1767837462993074e-30
  outer loop
    vertex 77.94425484647435 21.0 6.708628287626917
    vertex 89.21141345063562 21.0 7.110711317930694
    vertex 80.25470532518825 21.0 7.163750400200008
  endloop
endfacet
facet normal 2.696213791212384e-31 -1.0 2.1767837462993074e-30
  outer loop
    vertex 80.25470532518825 21.0 7.163750400200008
    vertex 89.21141345063562 21.0 7.110711317930694
    vertex 93.5 21.0 8.999999999999995
  endloop
endfacet
facet normal 2.696213791212384e-31 -1.0 2.1767837462993074e-30
  outer loop
    vertex 80.25470532518825 21.0 7.163750400200008
    vertex 93.5 21.0 8.999999999999995
    vertex 82.52279565947772 21.0 7.797062161850612
  endloop
endfacet
facet normal 2.696213791212384e-31 -1.0 2.1767837462993074e-30
  outer loop
    vertex 82.52279565947772 21.0 7.797062161850612
    vertex 93.5 21.0 8.999999999999995
    vertex 84.79088599376719 21.0 8.430373923501216
  endloop
endfacet
facet normal 2.696213791212384e-31 -1.0 2.1767837462993074e-30
  outer loop
    vertex 84.79088599376719 21.0 8.430373923501216
    vertex 93.5 21.0 8.999999999999995
    vertex 87.00289556161307 21.0 9.238044167908255
  endloop
endfacet
facet normal 2.696213791212384e-31 -1.0 2.1767837462993074e-30
  outer loop
    vertex 87.00289556161307 21.0 9.238044167908255
    vertex 93.5 21.0 8.999999999999995
    vertex 89.21490512945897 21.0 10.045714412315293
  endloop
endfacet
facet normal 2.696213791212384e-31 -1.0 2.1767837462993074e-30
  outer loop
    vertex 89.21490512945897 21.0 10.045714412315293
    vertex 93.5 21.0 8.999999999999995
    vertex 93.5 21.0 11.999999999999995
  endloop
endfacet
facet normal -0.16122467784017577 -4.675698431923292e-16 -0.986917728716701
  outer loop
    vertex 52.38192654461983 41.0 3.7700815151300504
    vertex 57.006916846017255 21.0 3.0145346750440787
    vertex 52.38192654461982 21.0 3.770081515130062
  endloop
endfacet
facet normal -0.16122467784017577 -4.675698431923292e-16 -0.986917728716701
  outer loop
    vertex 57.006916846017255 21.0 3.0145346750440787
    vertex 52.38192654461983 41.0 3.7700815151300504
    vertex 57.00691684601727 41.0 3.014534675044067
  endloop
endfacet
facet normal -0.08969951283012317 -4.862192823756303e-16 -0.9959688737094342
  outer loop
    vertex 57.00691684601727 41.0 3.014534675044067
    vertex 61.67432350755279 21.0 2.5941760526299897
    vertex 57.006916846017255 21.0 3.0145346750440787
  endloop
endfacet
facet normal -0.08969951283012317 -4.862192823756303e-16 -0.9959688737094342
  outer loop
    vertex 61.67432350755279 21.0 2.5941760526299897
    vertex 57.00691684601727 41.0 3.014534675044067
    vertex 61.67432350755281 41.0 2.5941760526299786
  endloop
endfacet
facet normal -0.017708110163025304 -2.983166049245789e-16 -0.9998431991239699
  outer loop
    vertex 61.67432350755281 41.0 2.5941760526299786
    vertex 65.75 21.0 2.521992205822462
    vertex 61.67432350755279 21.0 2.5941760526299897
  endloop
endfacet
facet normal -0.017708110163025304 -2.983166049245789e-16 -0.9998431991239699
  outer loop
    vertex 65.75 21.0 2.521992205822462
    vertex 61.67432350755281 41.0 2.5941760526299786
    vertex 65.75 41.0 2.5219922058224613
  endloop
endfacet
facet normal 0.41494909627090787 -1.977914610178561e-16 0.9098446282217405
  outer loop
    vertex 41.142547435270515 21.0 11.022857206157644
    vertex 38.99999999999999 31.0 12.0
    vertex 38.99999999999999 21.0 11.999999999999995
  endloop
endfacet
facet normal 0.41494909627090787 -1.977914610178561e-16 0.9098446282217405
  outer loop
    vertex 38.99999999999999 31.0 12.0
    vertex 41.142547435270515 21.0 11.022857206157644
    vertex 38.99999999999999 41.0 12.000000000000005
  endloop
endfacet
facet normal 0.41494909627090787 -1.977914610178561e-16 0.9098446282217405
  outer loop
    vertex 38.99999999999999 41.0 12.000000000000005
    vertex 41.142547435270515 21.0 11.022857206157644
    vertex 41.14254743527051 41.0 11.022857206157644
  endloop
endfacet
facet normal 0.41494909627090787 4.3126446527306644e-16 0.9098446282217405
  outer loop
    vertex 41.142547435270515 21.0 11.022857206157644
    vertex 43.285094870541016 41.0 10.045714412315283
    vertex 41.14254743527051 41.0 11.022857206157644
  endloop
endfacet
facet normal 0.41494909627090787 4.3126446527306644e-16 0.9098446282217405
  outer loop
    vertex 43.285094870541016 41.0 10.045714412315283
    vertex 41.142547435270515 21.0 11.022857206157644
    vertex 43.28509487054103 21.0 10.045714412315293
  endloop
endfacet
facet normal 0.34298164005666637 7.228282628670202e-16 0.9393421073198196
  outer loop
    vertex 43.28509487054103 21.0 10.045714412315293
    vertex 45.497104438386906 41.0 9.238044167908244
    vertex 43.285094870541016 41.0 10.045714412315283
  endloop
endfacet
facet normal 0.34298164005666637 7.228282628670202e-16 0.9393421073198196
  outer loop
    vertex 45.497104438386906 41.0 9.238044167908244
    vertex 43.28509487054103 21.0 10.045714412315293
    vertex 45.49710443838692 21.0 9.238044167908255
  endloop
endfacet
facet normal 0.34298164005666637 7.228282628670202e-16 0.9393421073198196
  outer loop
    vertex 45.49710443838692 21.0 9.238044167908255
    vertex 47.7091140062328 41.0 8.430373923501206
    vertex 45.497104438386906 41.0 9.238044167908244
  endloop
endfacet
facet normal 0.34298164005666637 7.228282628670202e-16 0.9393421073198196
  outer loop
    vertex 47.7091140062328 41.0 8.430373923501206
    vertex 45.49710443838692 21.0 9.238044167908255
    vertex 47.70911400623281 21.0 8.430373923501216
  endloop
endfacet
facet normal 0.2689393452120689 6.602411395610919e-16 0.9631571152189574
  outer loop
    vertex 47.70911400623281 21.0 8.430373923501216
    vertex 49.97720434052227 41.0 7.797062161850601
    vertex 47.7091140062328 41.0 8.430373923501206
  endloop
endfacet
facet normal 0.2689393452120689 6.602411395610919e-16 0.9631571152189574
  outer loop
    vertex 49.97720434052227 41.0 7.797062161850601
    vertex 47.70911400623281 21.0 8.430373923501216
    vertex 49.97720434052228 21.0 7.797062161850612
  endloop
endfacet
facet normal 0.2689393452120689 5.834886957004365e-16 0.9631571152189574
  outer loop
    vertex 49.97720434052228 21.0 7.797062161850612
    vertex 52.245294674811745 41.0 7.163750400199996
    vertex 49.97720434052227 41.0 7.797062161850601
  endloop
endfacet
facet normal 0.2689393452120689 5.834886957004365e-16 0.9631571152189574
  outer loop
    vertex 52.245294674811745 41.0 7.163750400199996
    vertex 49.97720434052228 21.0 7.797062161850612
    vertex 52.245294674811745 21.0 7.163750400200008
  endloop
endfacet
facet normal 0.19327012438222976 6.377101443955207e-16 0.9811455850286834
  outer loop
    vertex 54.55574515352564 21.0 6.708628287626917
    vertex 52.245294674811745 41.0 7.163750400199996
    vertex 52.245294674811745 21.0 7.163750400200008
  endloop
endfacet
facet normal 0.19327012438222976 6.377101443955207e-16 0.9811455850286834
  outer loop
    vertex 52.245294674811745 41.0 7.163750400199996
    vertex 54.55574515352564 21.0 6.708628287626917
    vertex 54.55574515352565 41.0 6.7086282876269
  endloop
endfacet
facet normal 0.1932701243822303 8.598162834221974e-16 0.9811455850286834
  outer loop
    vertex 56.86619563223954 21.0 6.2535061750538254
    vertex 54.55574515352565 41.0 6.7086282876269
    vertex 54.55574515352564 21.0 6.708628287626917
  endloop
endfacet
facet normal 0.1932701243822303 8.598162834221974e-16 0.9811455850286834
  outer loop
    vertex 54.55574515352565 41.0 6.7086282876269
    vertex 56.86619563223954 21.0 6.2535061750538254
    vertex 56.866195632239545 41.0 6.253506175053803
  endloop
endfacet
facet normal 0.11643173216439565 1.0229064457695312e-15 0.993198697011428
  outer loop
    vertex 59.20502937922214 21.0 5.979326934560324
    vertex 56.866195632239545 41.0 6.253506175053803
    vertex 56.86619563223954 21.0 6.2535061750538254
  endloop
endfacet
facet normal 0.11643173216439565 1.0229064457695312e-15 0.993198697011428
  outer loop
    vertex 56.866195632239545 41.0 6.253506175053803
    vertex 59.20502937922214 21.0 5.979326934560324
    vertex 59.20502937922217 41.0 5.979326934560301
  endloop
endfacet
facet normal 0.11643173216439565 1.022254908817336e-15 0.993198697011428
  outer loop
    vertex 61.54386312620476 21.0 5.705147694066821
    vertex 59.20502937922217 41.0 5.979326934560301
    vertex 59.20502937922214 21.0 5.979326934560324
  endloop
endfacet
facet normal 0.11643173216439565 1.022254908817336e-15 0.993198697011428
  outer loop
    vertex 59.20502937922217 41.0 5.979326934560301
    vertex 61.54386312620476 21.0 5.705147694066821
    vertex 61.54386312620477 41.0 5.705147694066799
  endloop
endfacet
facet normal 0.043503598431693394 8.380391006445647e-16 0.9990532703131972
  outer loop
    vertex 63.646931563102385 21.0 5.613569949944642
    vertex 61.54386312620477 41.0 5.705147694066799
    vertex 61.54386312620476 21.0 5.705147694066821
  endloop
endfacet
facet normal 0.043503598431693394 8.380391006445647e-16 0.9990532703131972
  outer loop
    vertex 61.54386312620477 41.0 5.705147694066799
    vertex 63.646931563102385 21.0 5.613569949944642
    vertex 63.64693156310239 41.0 5.61356994994463
  endloop
endfacet
facet normal 0.0435035984316935 3.2214539888972507e-16 0.999053270313197
  outer loop
    vertex 65.75 21.0 5.521992205822462
    vertex 63.64693156310239 41.0 5.61356994994463
    vertex 63.646931563102385 21.0 5.613569949944642
  endloop
endfacet
facet normal 0.0435035984316935 3.2214539888972507e-16 0.999053270313197
  outer loop
    vertex 63.64693156310239 41.0 5.61356994994463
    vertex 65.75 21.0 5.521992205822462
    vertex 65.75 41.0 5.521992205822461
  endloop
endfacet
facet normal -0.03421336423283442 4.183861973407019e-16 0.9994145514789504
  outer loop
    vertex 66.24999999999999 21.0 5.521992205822461
    vertex 65.75 41.0 5.521992205822461
    vertex 65.75 21.0 5.521992205822462
  endloop
endfacet
facet normal -0.03421336423283442 4.183861973407019e-16 0.9994145514789504
  outer loop
    vertex 65.75 41.0 5.521992205822461
    vertex 66.24999999999999 21.0 5.521992205822461
    vertex 66.25 41.0 5.52199220582245
  endloop
endfacet
facet normal -0.03421336423283442 4.183861973407019e-16 0.9994145514789504
  outer loop
    vertex 66.25 41.0 5.52199220582245
    vertex 66.24999999999999 21.0 5.521992205822461
    vertex 68.6030684368976 21.0 5.613569949944636
  endloop
endfacet
facet normal -0.03421336423283442 4.183861973407019e-16 0.9994145514789504
  outer loop
    vertex 66.25 41.0 5.52199220582245
    vertex 68.6030684368976 21.0 5.613569949944636
    vertex 68.60306843689763 41.0 5.613569949944624
  endloop
endfacet
facet normal -0.038888995959945015 5.965672861316485e-16 0.9992435368783866
  outer loop
    vertex 70.95613687379522 21.0 5.70514769406681
    vertex 68.60306843689763 41.0 5.613569949944624
    vertex 68.6030684368976 21.0 5.613569949944636
  endloop
endfacet
facet normal -0.038888995959945015 5.965672861316485e-16 0.9992435368783866
  outer loop
    vertex 68.60306843689763 41.0 5.613569949944624
    vertex 70.95613687379522 21.0 5.70514769406681
    vertex 70.95613687379523 41.0 5.705147694066799
  endloop
endfacet
facet normal -0.11643173216439803 5.925263839134192e-16 0.9931986970114278
  outer loop
    vertex 73.29497062077785 21.0 5.9793269345603175
    vertex 70.95613687379523 41.0 5.705147694066799
    vertex 70.95613687379522 21.0 5.70514769406681
  endloop
endfacet
facet normal -0.11643173216439803 5.925263839134192e-16 0.9931986970114278
  outer loop
    vertex 70.95613687379523 41.0 5.705147694066799
    vertex 73.29497062077785 21.0 5.9793269345603175
    vertex 73.29497062077785 41.0 5.979326934560307
  endloop
endfacet
facet normal -0.11643173216439803 5.925263839134192e-16 0.9931986970114278
  outer loop
    vertex 75.63380436776045 21.0 6.2535061750538254
    vertex 73.29497062077785 41.0 5.979326934560307
    vertex 73.29497062077785 21.0 5.9793269345603175
  endloop
endfacet
facet normal -0.11643173216439803 5.925263839134192e-16 0.9931986970114278
  outer loop
    vertex 73.29497062077785 41.0 5.979326934560307
    vertex 75.63380436776045 21.0 6.2535061750538254
    vertex 75.63380436776046 41.0 6.253506175053815
  endloop
endfacet
facet normal -0.19327012438222752 7.46943127280898e-16 0.9811455850286839
  outer loop
    vertex 77.94425484647435 21.0 6.708628287626917
    vertex 75.63380436776046 41.0 6.253506175053815
    vertex 75.63380436776045 21.0 6.2535061750538254
  endloop
endfacet
facet normal -0.19327012438222752 7.46943127280898e-16 0.9811455850286839
  outer loop
    vertex 75.63380436776046 41.0 6.253506175053815
    vertex 77.94425484647435 21.0 6.708628287626917
    vertex 77.94425484647435 41.0 6.7086282876269
  endloop
endfacet
facet normal -0.19327012438222743 1.0224387048948655e-15 0.9811455850286839
  outer loop
    vertex 80.25470532518825 21.0 7.163750400200008
    vertex 77.94425484647435 41.0 6.7086282876269
    vertex 77.94425484647435 21.0 6.708628287626917
  endloop
endfacet
facet normal -0.19327012438222743 1.0224387048948655e-15 0.9811455850286839
  outer loop
    vertex 77.94425484647435 41.0 6.7086282876269
    vertex 80.25470532518825 21.0 7.163750400200008
    vertex 80.25470532518827 41.0 7.1637504001999845
  endloop
endfacet
facet normal -0.26893934521207036 1.02668759033432e-15 0.963157115218957
  outer loop
    vertex 82.52279565947772 21.0 7.797062161850612
    vertex 80.25470532518827 41.0 7.1637504001999845
    vertex 80.25470532518825 21.0 7.163750400200008
  endloop
endfacet
facet normal -0.26893934521207036 1.02668759033432e-15 0.963157115218957
  outer loop
    vertex 80.25470532518827 41.0 7.1637504001999845
    vertex 82.52279565947772 21.0 7.797062161850612
    vertex 82.52279565947772 41.0 7.7970621618505955
  endloop
endfacet
facet normal -0.2689393452120697 6.777551470585153e-16 0.9631571152189572
  outer loop
    vertex 84.79088599376719 21.0 8.430373923501216
    vertex 82.52279565947772 41.0 7.7970621618505955
    vertex 82.52279565947772 21.0 7.797062161850612
  endloop
endfacet
facet normal -0.2689393452120697 6.777551470585153e-16 0.9631571152189572
  outer loop
    vertex 82.52279565947772 41.0 7.7970621618505955
    vertex 84.79088599376719 21.0 8.430373923501216
    vertex 84.79088599376719 41.0 8.430373923501206
  endloop
endfacet
facet normal -0.34298164005666654 6.268642124027103e-16 0.9393421073198196
  outer loop
    vertex 87.00289556161307 21.0 9.238044167908255
    vertex 84.79088599376719 41.0 8.430373923501206
    vertex 84.79088599376719 21.0 8.430373923501216
  endloop
endfacet
facet normal -0.34298164005666654 6.268642124027103e-16 0.9393421073198196
  outer loop
    vertex 84.79088599376719 41.0 8.430373923501206
    vertex 87.00289556161307 21.0 9.238044167908255
    vertex 87.00289556161309 41.0 9.238044167908244
  endloop
endfacet
facet normal -0.41494909627090687 6.054145859970883e-16 0.9098446282217408
  outer loop
    vertex 93.5 21.0 11.999999999999995
    vertex 89.21490512945898 41.0 10.045714412315283
    vertex 89.21490512945897 21.0 10.045714412315293
  endloop
endfacet
facet normal -0.41494909627090687 6.054145859970883e-16 0.9098446282217408
  outer loop
    vertex 89.21490512945898 41.0 10.045714412315283
    vertex 93.5 21.0 11.999999999999995
    vertex 93.50000000000001 41.0 11.999999999999995
  endloop
endfacet
facet normal -0.3429816400566665 8.226308753499026e-16 0.9393421073198196
  outer loop
    vertex 89.21490512945897 21.0 10.045714412315293
    vertex 87.00289556161309 41.0 9.238044167908244
    vertex 87.00289556161307 21.0 9.238044167908255
  endloop
endfacet
facet normal -0.3429816400566665 8.226308753499026e-16 0.9393421073198196
  outer loop
    vertex 87.00289556161309 41.0 9.238044167908244
    vertex 89.21490512945897 21.0 10.045714412315293
    vertex 89.21490512945898 41.0 10.045714412315283
  endloop
endfacet
facet normal -0.36930872025134587 1.0436349965516217e-16 -0.9293067680514939
  outer loop
    vertex 41.17750409390758 41.0 7.134654693251398
    vertex 38.99999999999999 31.0 8.000000000000002
    vertex 38.99999999999999 41.0 8.0
  endloop
endfacet
facet normal -0.36930872025134587 1.0436349965516217e-16 -0.9293067680514939
  outer loop
    vertex 38.99999999999999 31.0 8.000000000000002
    vertex 41.17750409390758 41.0 7.134654693251398
    vertex 38.99999999999999 21.0 8.0
  endloop
endfacet
facet normal -0.36930872025134587 1.0436349965516217e-16 -0.9293067680514939
  outer loop
    vertex 38.99999999999999 21.0 8.0
    vertex 41.17750409390758 41.0 7.134654693251398
    vertex 41.177504093907565 21.0 7.134654693251398
  endloop
endfacet
facet normal -0.30139356453997995 2.738354083473464e-17 -0.9534998265620636
  outer loop
    vertex 43.35500818781516 41.0 6.269309386502794
    vertex 45.58920021918535 21.0 5.563099399418278
    vertex 43.35500818781514 21.0 6.269309386502794
  endloop
endfacet
facet normal -0.30139356453997995 2.738354083473464e-17 -0.9534998265620636
  outer loop
    vertex 45.58920021918535 21.0 5.563099399418278
    vertex 43.35500818781516 41.0 6.269309386502794
    vertex 45.58920021918537 41.0 5.563099399418267
  endloop
endfacet
facet normal -0.3693087202513463 3.141238009422713e-16 -0.9293067680514939
  outer loop
    vertex 41.17750409390758 41.0 7.134654693251398
    vertex 43.35500818781514 21.0 6.269309386502794
    vertex 41.177504093907565 21.0 7.134654693251398
  endloop
endfacet
facet normal -0.3693087202513463 3.141238009422713e-16 -0.9293067680514939
  outer loop
    vertex 43.35500818781514 21.0 6.269309386502794
    vertex 41.17750409390758 41.0 7.134654693251398
    vertex 43.35500818781516 41.0 6.269309386502794
  endloop
endfacet
facet normal -0.23191183366061652 -6.637405796721548e-16 -0.9727368099379045
  outer loop
    vertex 47.823392250555585 41.0 4.85688941233374
    vertex 52.38192654461982 21.0 3.770081515130062
    vertex 47.823392250555564 21.0 4.8568894123337625
  endloop
endfacet
facet normal -0.23191183366061652 -6.637405796721548e-16 -0.9727368099379045
  outer loop
    vertex 52.38192654461982 21.0 3.770081515130062
    vertex 47.823392250555585 41.0 4.85688941233374
    vertex 52.38192654461983 41.0 3.7700815151300504
  endloop
endfacet
facet normal -0.30139356453998034 -5.54034954511826e-16 -0.9534998265620633
  outer loop
    vertex 45.58920021918537 41.0 5.563099399418267
    vertex 47.823392250555564 21.0 4.8568894123337625
    vertex 45.58920021918535 21.0 5.563099399418278
  endloop
endfacet
facet normal -0.30139356453998034 -5.54034954511826e-16 -0.9534998265620633
  outer loop
    vertex 47.823392250555564 21.0 4.8568894123337625
    vertex 45.58920021918537 41.0 5.563099399418267
    vertex 47.823392250555585 41.0 4.85688941233374
  endloop
endfacet
endsolid WalletBackV3
